<svg viewBox="0 0 2000 1000" xmlns="http://www.w3.org/2000/svg"><mask id="b" x="0" y="0" width="2000" height="1000"><path fill="url(#a)" d="M0 0h2000v1000H0z"/></mask><path fill="rgba(255, 255, 255, 0)" d="M0 0h2000v1000H0z"/><g style="transform-origin:center center" stroke="#8e92db" stroke-width="3.6" mask="url(#b)"><path fill="#8e92db16" d="M0 0h100.05v100.05H0z" stroke-width="4.14"/><path fill="none" d="M100.05 0H200.1v100.05H100.05zM200.1 0h100.05v100.05H200.1zM300.15 0H400.2v100.05H300.15z" stroke-width="4.14"/><path fill="#8e92db71" d="M400.2 0h100.05v100.05H400.2z" stroke-width="4.14"/><path fill="none" d="M500.25 0H600.3v100.05H500.25zM600.3 0h100.05v100.05H600.3zM700.35 0H800.4v100.05H700.35zM800.4 0h100.05v100.05H800.4z" stroke-width="4.14"/><path fill="#8e92db12" d="M900.45 0h100.05v100.05H900.45z" stroke-width="4.14"/><path fill="none" d="M1000.5 0h100.05v100.05H1000.5zM1100.55 0h100.05v100.05h-100.05zM1200.6 0h100.05v100.05H1200.6z" stroke-width="4.14"/><path fill="#8e92db96" d="M1300.65 0h100.05v100.05h-100.05z" stroke-width="4.14"/><path fill="none" d="M1400.7 0h100.05v100.05H1400.7zM1500.75 0h100.05v100.05h-100.05z" stroke-width="4.14"/><path fill="#8e92db81" d="M1600.8 0h100.05v100.05H1600.8z" stroke-width="4.14"/><path fill="none" d="M1700.85 0h100.05v100.05h-100.05zM1800.9 0h100.05v100.05H1800.9z" stroke-width="4.14"/><path fill="#8e92dba0" d="M1900.95 0H2001v100.05h-100.05z" stroke-width="4.14"/><path fill="none" d="M2001 0h100.05v100.05H2001zM2101.05 0h100.05v100.05h-100.05z" stroke-width="4.14"/><path fill="none" d="M2201.1 0h100.05v100.05H2201.1zM0 100.05h100.05V200.1H0z" stroke-width="4.14"/><path fill="#8e92dbd7" d="M100.05 100.05H200.1V200.1H100.05z" stroke-width="4.14"/><path fill="none" d="M200.1 100.05h100.05V200.1H200.1z" stroke-width="4.14"/><path fill="#8e92db7b" d="M300.15 100.05H400.2V200.1H300.15z" stroke-width="4.14"/><path fill="none" d="M400.2 100.05h100.05V200.1H400.2zM500.25 100.05H600.3V200.1H500.25zM600.3 100.05h100.05V200.1H600.3zM700.35 100.05H800.4V200.1H700.35z" stroke-width="4.14"/><path fill="#8e92dbfc" d="M800.4 100.05h100.05V200.1H800.4z" stroke-width="4.14"/><path fill="none" d="M900.45 100.05h100.05V200.1H900.45z" stroke-width="4.14"/><path fill="#8e92db6f" d="M1000.5 100.05h100.05V200.1H1000.5z" stroke-width="4.14"/><path fill="#8e92db67" d="M1100.55 100.05h100.05V200.1h-100.05z" stroke-width="4.14"/><path fill="#8e92db55" d="M1200.6 100.05h100.05V200.1H1200.6z" stroke-width="4.14"/><path fill="none" d="M1300.65 100.05h100.05V200.1h-100.05zM1400.7 100.05h100.05V200.1H1400.7zM1500.75 100.05h100.05V200.1h-100.05zM1600.8 100.05h100.05V200.1H1600.8zM1700.85 100.05h100.05V200.1h-100.05z" stroke-width="4.14"/><path fill="#8e92db03" d="M1800.9 100.05h100.05V200.1H1800.9z" stroke-width="4.14"/><path fill="#8e92db0b" d="M1900.95 100.05H2001V200.1h-100.05z" stroke-width="4.14"/><path fill="#8e92db80" d="M2001 100.05h100.05V200.1H2001z" stroke-width="4.14"/><path fill="none" d="M2101.05 100.05h100.05V200.1h-100.05z" stroke-width="4.14"/><path fill="none" d="M2201.1 100.05h100.05V200.1H2201.1zM0 200.1h100.05v100.05H0z" stroke-width="4.14"/><path fill="#8e92db8e" d="M100.05 200.1H200.1v100.05H100.05z" stroke-width="4.14"/><path fill="none" d="M200.1 200.1h100.05v100.05H200.1z" stroke-width="4.14"/><path fill="#8e92db51" d="M300.15 200.1H400.2v100.05H300.15z" stroke-width="4.14"/><path fill="none" d="M400.2 200.1h100.05v100.05H400.2zM500.25 200.1H600.3v100.05H500.25zM600.3 200.1h100.05v100.05H600.3zM700.35 200.1H800.4v100.05H700.35zM800.4 200.1h100.05v100.05H800.4z" stroke-width="4.14"/><path fill="#8e92db8f" d="M900.45 200.1h100.05v100.05H900.45z" stroke-width="4.14"/><path fill="none" d="M1000.5 200.1h100.05v100.05H1000.5z" stroke-width="4.14"/><path fill="#8e92dbc5" d="M1100.55 200.1h100.05v100.05h-100.05z" stroke-width="4.14"/><path fill="none" d="M1200.6 200.1h100.05v100.05H1200.6z" stroke-width="4.14"/><path fill="#8e92dbe7" d="M1300.65 200.1h100.05v100.05h-100.05z" stroke-width="4.14"/><path fill="none" d="M1400.7 200.1h100.05v100.05H1400.7zM1500.75 200.1h100.05v100.05h-100.05z" stroke-width="4.14"/><path fill="#8e92dba8" d="M1600.8 200.1h100.05v100.05H1600.8z" stroke-width="4.14"/><path fill="#8e92dbae" d="M1700.85 200.1h100.05v100.05h-100.05z" stroke-width="4.14"/><path fill="none" d="M1800.9 200.1h100.05v100.05H1800.9zM1900.95 200.1H2001v100.05h-100.05zM2001 200.1h100.05v100.05H2001zM2101.05 200.1h100.05v100.05h-100.05z" stroke-width="4.14"/><path fill="#8e92db35" d="M2201.1 200.1h100.05v100.05H2201.1z" stroke-width="4.14"/><path fill="none" d="M0 300.15h100.05V400.2H0z" stroke-width="4.14"/><path fill="#8e92db72" d="M100.05 300.15H200.1V400.2H100.05z" stroke-width="4.14"/><path fill="none" d="M200.1 300.15h100.05V400.2H200.1zM300.15 300.15H400.2V400.2H300.15zM400.2 300.15h100.05V400.2H400.2zM500.25 300.15H600.3V400.2H500.25zM600.3 300.15h100.05V400.2H600.3zM700.35 300.15H800.4V400.2H700.35z" stroke-width="4.14"/><path fill="#8e92db6e" d="M800.4 300.15h100.05V400.2H800.4z" stroke-width="4.14"/><path fill="#8e92db4b" d="M900.45 300.15h100.05V400.2H900.45z" stroke-width="4.14"/><path fill="#8e92db65" d="M1000.5 300.15h100.05V400.2H1000.5z" stroke-width="4.14"/><path fill="#8e92db52" d="M1100.55 300.15h100.05V400.2h-100.05z" stroke-width="4.14"/><path fill="none" d="M1200.6 300.15h100.05V400.2H1200.6zM1300.65 300.15h100.05V400.2h-100.05zM1400.7 300.15h100.05V400.2H1400.7zM1500.75 300.15h100.05V400.2h-100.05zM1600.8 300.15h100.05V400.2H1600.8zM1700.85 300.15h100.05V400.2h-100.05zM1800.9 300.15h100.05V400.2H1800.9zM1900.95 300.15H2001V400.2h-100.05z" stroke-width="4.14"/><path fill="#8e92dbd7" d="M2001 300.15h100.05V400.2H2001z" stroke-width="4.14"/><path fill="none" d="M2101.05 300.15h100.05V400.2h-100.05z" stroke-width="4.14"/><path fill="#8e92db23" d="M2201.1 300.15h100.05V400.2H2201.1z" stroke-width="4.14"/><path fill="#8e92dbe0" d="M0 400.2h100.05v100.05H0z" stroke-width="4.14"/><path fill="none" d="M100.05 400.2H200.1v100.05H100.05z" stroke-width="4.14"/><path fill="#8e92db11" d="M200.1 400.2h100.05v100.05H200.1z" stroke-width="4.14"/><path fill="none" d="M300.15 400.2H400.2v100.05H300.15zM400.2 400.2h100.05v100.05H400.2z" stroke-width="4.14"/><path fill="#8e92dbb9" d="M500.25 400.2H600.3v100.05H500.25z" stroke-width="4.14"/><path fill="none" d="M600.3 400.2h100.05v100.05H600.3zM700.35 400.2H800.4v100.05H700.35z" stroke-width="4.14"/><path fill="#8e92db1c" d="M800.4 400.2h100.05v100.05H800.4z" stroke-width="4.14"/><path fill="#8e92db33" d="M900.45 400.2h100.05v100.05H900.45z" stroke-width="4.14"/><path fill="#8e92db94" d="M1000.5 400.2h100.05v100.05H1000.5z" stroke-width="4.14"/><path fill="none" d="M1100.55 400.2h100.05v100.05h-100.05zM1200.6 400.2h100.05v100.05H1200.6z" stroke-width="4.14"/><path fill="#8e92dbee" d="M1300.65 400.2h100.05v100.05h-100.05z" stroke-width="4.14"/><path fill="none" d="M1400.7 400.2h100.05v100.05H1400.7zM1500.75 400.2h100.05v100.05h-100.05zM1600.8 400.2h100.05v100.05H1600.8zM1700.85 400.2h100.05v100.05h-100.05zM1800.9 400.2h100.05v100.05H1800.9zM1900.95 400.2H2001v100.05h-100.05zM2001 400.2h100.05v100.05H2001zM2101.05 400.2h100.05v100.05h-100.05z" stroke-width="4.14"/><path fill="#8e92db74" d="M2201.1 400.2h100.05v100.05H2201.1z" stroke-width="4.14"/><path fill="#8e92db29" d="M0 500.25h100.05V600.3H0z" stroke-width="4.14"/><path fill="none" d="M100.05 500.25H200.1V600.3H100.05zM200.1 500.25h100.05V600.3H200.1zM300.15 500.25H400.2V600.3H300.15zM400.2 500.25h100.05V600.3H400.2zM500.25 500.25H600.3V600.3H500.25zM600.3 500.25h100.05V600.3H600.3zM700.35 500.25H800.4V600.3H700.35zM800.4 500.25h100.05V600.3H800.4zM900.45 500.25h100.05V600.3H900.45zM1000.5 500.25h100.05V600.3H1000.5zM1100.55 500.25h100.05V600.3h-100.05zM1200.6 500.25h100.05V600.3H1200.6zM1300.65 500.25h100.05V600.3h-100.05zM1400.7 500.25h100.05V600.3H1400.7z" stroke-width="4.14"/><path fill="#8e92dbf7" d="M1500.75 500.25h100.05V600.3h-100.05z" stroke-width="4.14"/><path fill="#8e92db6a" d="M1600.8 500.25h100.05V600.3H1600.8z" stroke-width="4.14"/><path fill="none" d="M1700.85 500.25h100.05V600.3h-100.05z" stroke-width="4.14"/><path fill="#8e92dba4" d="M1800.9 500.25h100.05V600.3H1800.9z" stroke-width="4.14"/><path fill="none" d="M1900.95 500.25H2001V600.3h-100.05zM2001 500.25h100.05V600.3H2001z" stroke-width="4.14"/><path fill="#8e92db35" d="M2101.05 500.25h100.05V600.3h-100.05z" stroke-width="4.14"/><path fill="none" d="M2201.1 500.25h100.05V600.3H2201.1zM0 600.3h100.05v100.05H0zM100.05 600.3H200.1v100.05H100.05zM200.1 600.3h100.05v100.05H200.1z" stroke-width="4.14"/><path fill="#8e92db5b" d="M300.15 600.3H400.2v100.05H300.15z" stroke-width="4.14"/><path fill="none" d="M400.2 600.3h100.05v100.05H400.2z" stroke-width="4.14"/><path fill="#8e92db1a" d="M500.25 600.3H600.3v100.05H500.25z" stroke-width="4.14"/><path fill="none" d="M600.3 600.3h100.05v100.05H600.3zM700.35 600.3H800.4v100.05H700.35z" stroke-width="4.14"/><path fill="#8e92dbf3" d="M800.4 600.3h100.05v100.05H800.4z" stroke-width="4.14"/><path fill="none" d="M900.45 600.3h100.05v100.05H900.45zM1000.5 600.3h100.05v100.05H1000.5zM1100.55 600.3h100.05v100.05h-100.05z" stroke-width="4.14"/><path fill="#8e92dbe5" d="M1200.6 600.3h100.05v100.05H1200.6z" stroke-width="4.14"/><path fill="none" d="M1300.65 600.3h100.05v100.05h-100.05z" stroke-width="4.14"/><path fill="#8e92db4d" d="M1400.7 600.3h100.05v100.05H1400.7z" stroke-width="4.14"/><path fill="#8e92db62" d="M1500.75 600.3h100.05v100.05h-100.05z" stroke-width="4.14"/><path fill="#8e92db47" d="M1600.8 600.3h100.05v100.05H1600.8z" stroke-width="4.14"/><path fill="#8e92dbf8" d="M1700.85 600.3h100.05v100.05h-100.05z" stroke-width="4.14"/><path fill="#8e92db57" d="M1800.9 600.3h100.05v100.05H1800.9z" stroke-width="4.14"/><path fill="none" d="M1900.95 600.3H2001v100.05h-100.05zM2001 600.3h100.05v100.05H2001zM2101.05 600.3h100.05v100.05h-100.05z" stroke-width="4.14"/><path fill="#8e92db31" d="M2201.1 600.3h100.05v100.05H2201.1z" stroke-width="4.14"/><path fill="#8e92dba9" d="M0 700.35h100.05V800.4H0z" stroke-width="4.14"/><path fill="#8e92dbdb" d="M100.05 700.35H200.1V800.4H100.05z" stroke-width="4.14"/><path fill="#8e92db02" d="M200.1 700.35h100.05V800.4H200.1z" stroke-width="4.14"/><path fill="none" d="M300.15 700.35H400.2V800.4H300.15z" stroke-width="4.14"/><path fill="#8e92dbbe" d="M400.2 700.35h100.05V800.4H400.2z" stroke-width="4.14"/><path fill="none" d="M500.25 700.35H600.3V800.4H500.25z" stroke-width="4.14"/><path fill="#8e92db7d" d="M600.3 700.35h100.05V800.4H600.3z" stroke-width="4.14"/><path fill="none" d="M700.35 700.35H800.4V800.4H700.35zM800.4 700.35h100.05V800.4H800.4zM900.45 700.35h100.05V800.4H900.45z" stroke-width="4.14"/><path fill="#8e92db29" d="M1000.5 700.35h100.05V800.4H1000.5z" stroke-width="4.14"/><path fill="#8e92dbf4" d="M1100.55 700.35h100.05V800.4h-100.05z" stroke-width="4.14"/><path fill="#8e92db54" d="M1200.6 700.35h100.05V800.4H1200.6z" stroke-width="4.14"/><path fill="#8e92dbc3" d="M1300.65 700.35h100.05V800.4h-100.05z" stroke-width="4.14"/><path fill="#8e92dba9" d="M1400.7 700.35h100.05V800.4H1400.7z" stroke-width="4.14"/><path fill="#8e92dba0" d="M1500.75 700.35h100.05V800.4h-100.05z" stroke-width="4.14"/><path fill="none" d="M1600.8 700.35h100.05V800.4H1600.8zM1700.85 700.35h100.05V800.4h-100.05zM1800.9 700.35h100.05V800.4H1800.9zM1900.95 700.35H2001V800.4h-100.05zM2001 700.35h100.05V800.4H2001zM2101.05 700.35h100.05V800.4h-100.05z" stroke-width="4.14"/><path fill="none" d="M2201.1 700.35h100.05V800.4H2201.1z" stroke-width="4.14"/><path fill="#8e92dbae" d="M0 800.4h100.05v100.05H0z" stroke-width="4.14"/><path fill="none" d="M100.05 800.4H200.1v100.05H100.05z" stroke-width="4.14"/><path fill="#8e92dbee" d="M200.1 800.4h100.05v100.05H200.1z" stroke-width="4.14"/><path fill="none" d="M300.15 800.4H400.2v100.05H300.15zM400.2 800.4h100.05v100.05H400.2z" stroke-width="4.14"/><path fill="#8e92db5f" d="M500.25 800.4H600.3v100.05H500.25z" stroke-width="4.14"/><path fill="none" d="M600.3 800.4h100.05v100.05H600.3z" stroke-width="4.14"/><path fill="#8e92db0c" d="M700.35 800.4H800.4v100.05H700.35z" stroke-width="4.14"/><path fill="none" d="M800.4 800.4h100.05v100.05H800.4zM900.45 800.4h100.05v100.05H900.45zM1000.5 800.4h100.05v100.05H1000.5z" stroke-width="4.14"/><path fill="#8e92db1c" d="M1100.55 800.4h100.05v100.05h-100.05z" stroke-width="4.14"/><path fill="#8e92db74" d="M1200.6 800.4h100.05v100.05H1200.6z" stroke-width="4.14"/><path fill="none" d="M1300.65 800.4h100.05v100.05h-100.05zM1400.7 800.4h100.05v100.05H1400.7zM1500.75 800.4h100.05v100.05h-100.05z" stroke-width="4.14"/><path fill="#8e92dbba" d="M1600.8 800.4h100.05v100.05H1600.8z" stroke-width="4.14"/><path fill="none" d="M1700.85 800.4h100.05v100.05h-100.05zM1800.9 800.4h100.05v100.05H1800.9zM1900.95 800.4H2001v100.05h-100.05zM2001 800.4h100.05v100.05H2001zM2101.05 800.4h100.05v100.05h-100.05z" stroke-width="4.14"/><path fill="none" d="M2201.1 800.4h100.05v100.05H2201.1zM0 900.45h100.05v100.05H0zM100.05 900.45H200.1v100.05H100.05z" stroke-width="4.14"/><path fill="#8e92dbd4" d="M200.1 900.45h100.05v100.05H200.1z" stroke-width="4.14"/><path fill="none" d="M300.15 900.45H400.2v100.05H300.15z" stroke-width="4.14"/><path fill="#8e92db3f" d="M400.2 900.45h100.05v100.05H400.2z" stroke-width="4.14"/><path fill="none" d="M500.25 900.45H600.3v100.05H500.25zM600.3 900.45h100.05v100.05H600.3zM700.35 900.45H800.4v100.05H700.35zM800.4 900.45h100.05v100.05H800.4zM900.45 900.45h100.05v100.05H900.45zM1000.5 900.45h100.05v100.05H1000.5zM1100.55 900.45h100.05v100.05h-100.05zM1200.6 900.45h100.05v100.05H1200.6zM1300.65 900.45h100.05v100.05h-100.05z" stroke-width="4.14"/><path fill="#8e92dbb0" d="M1400.7 900.45h100.05v100.05H1400.7z" stroke-width="4.14"/><path fill="none" d="M1500.75 900.45h100.05v100.05h-100.05z" stroke-width="4.14"/><path fill="#8e92db5f" d="M1600.8 900.45h100.05v100.05H1600.8z" stroke-width="4.14"/><path fill="#8e92db96" d="M1700.85 900.45h100.05v100.05h-100.05z" stroke-width="4.14"/><path fill="none" d="M1800.9 900.45h100.05v100.05H1800.9zM1900.95 900.45H2001v100.05h-100.05zM2001 900.45h100.05v100.05H2001zM2101.05 900.45h100.05v100.05h-100.05z" stroke-width="4.14"/><path fill="#8e92dba2" d="M2201.1 900.45h100.05v100.05H2201.1z" stroke-width="4.14"/><path fill="none" d="M0 1000.5h100.05v100.05H0zM100.05 1000.5H200.1v100.05H100.05zM200.1 1000.5h100.05v100.05H200.1zM300.15 1000.5H400.2v100.05H300.15z" stroke-width="4.14"/><path fill="#8e92db7d" d="M400.2 1000.5h100.05v100.05H400.2z" stroke-width="4.14"/><path fill="none" d="M500.25 1000.5H600.3v100.05H500.25zM600.3 1000.5h100.05v100.05H600.3zM700.35 1000.5H800.4v100.05H700.35zM800.4 1000.5h100.05v100.05H800.4zM900.45 1000.5h100.05v100.05H900.45z" stroke-width="4.14"/><path fill="#8e92db53" d="M1000.5 1000.5h100.05v100.05H1000.5z" stroke-width="4.14"/><path fill="#8e92dbbd" d="M1100.55 1000.5h100.05v100.05h-100.05z" stroke-width="4.14"/><path fill="none" d="M1200.6 1000.5h100.05v100.05H1200.6zM1300.65 1000.5h100.05v100.05h-100.05z" stroke-width="4.14"/><path fill="#8e92db31" d="M1400.7 1000.5h100.05v100.05H1400.7z" stroke-width="4.14"/><path fill="#8e92dbaf" d="M1500.75 1000.5h100.05v100.05h-100.05z" stroke-width="4.14"/><path fill="none" d="M1600.8 1000.5h100.05v100.05H1600.8z" stroke-width="4.14"/><path fill="#8e92db59" d="M1700.85 1000.5h100.05v100.05h-100.05z" stroke-width="4.14"/><path fill="#8e92dbaa" d="M1800.9 1000.5h100.05v100.05H1800.9z" stroke-width="4.14"/><path fill="none" d="M1900.95 1000.5H2001v100.05h-100.05z" stroke-width="4.14"/><path fill="#8e92db25" d="M2001 1000.5h100.05v100.05H2001z" stroke-width="4.14"/><path fill="none" d="M2101.05 1000.5h100.05v100.05h-100.05z" stroke-width="4.14"/><path fill="none" d="M2201.1 1000.5h100.05v100.05H2201.1z" stroke-width="4.14"/><path fill="#8e92dbe5" d="M0 1100.55h100.05v100.05H0z" stroke-width="4.14"/><path fill="none" d="M100.05 1100.55H200.1v100.05H100.05z" stroke-width="4.14"/><path fill="#8e92db0b" d="M200.1 1100.55h100.05v100.05H200.1z" stroke-width="4.14"/><path fill="#8e92dbc2" d="M300.15 1100.55H400.2v100.05H300.15z" stroke-width="4.14"/><path fill="#8e92dbb0" d="M400.2 1100.55h100.05v100.05H400.2z" stroke-width="4.14"/><path fill="none" d="M500.25 1100.55H600.3v100.05H500.25zM600.3 1100.55h100.05v100.05H600.3zM700.35 1100.55H800.4v100.05H700.35z" stroke-width="4.14"/><path fill="#8e92dbe6" d="M800.4 1100.55h100.05v100.05H800.4z" stroke-width="4.14"/><path fill="none" d="M900.45 1100.55h100.05v100.05H900.45zM1000.5 1100.55h100.05v100.05H1000.5zM1100.55 1100.55h100.05v100.05h-100.05z" stroke-width="4.14"/><path fill="#8e92dbf9" d="M1200.6 1100.55h100.05v100.05H1200.6z" stroke-width="4.14"/><path fill="none" d="M1300.65 1100.55h100.05v100.05h-100.05zM1400.7 1100.55h100.05v100.05H1400.7zM1500.75 1100.55h100.05v100.05h-100.05z" stroke-width="4.14"/><path fill="#8e92db53" d="M1600.8 1100.55h100.05v100.05H1600.8z" stroke-width="4.14"/><path fill="#8e92db4b" d="M1700.85 1100.55h100.05v100.05h-100.05z" stroke-width="4.14"/><path fill="#8e92db96" d="M1800.9 1100.55h100.05v100.05H1800.9z" stroke-width="4.14"/><path fill="none" d="M1900.95 1100.55H2001v100.05h-100.05z" stroke-width="4.14"/><path fill="#8e92dbc7" d="M2001 1100.55h100.05v100.05H2001z" stroke-width="4.14"/><path fill="none" d="M2101.05 1100.55h100.05v100.05h-100.05z" stroke-width="4.14"/><path fill="none" d="M2201.1 1100.55h100.05v100.05H2201.1z" stroke-width="4.14"/></g><defs><radialGradient id="a"><stop offset="0" stop-color="#fff"/><stop offset="1" stop-color="#fff" stop-opacity="0"/></radialGradient></defs></svg>