<svg viewBox="0 0 2000 1000" xmlns="http://www.w3.org/2000/svg"><mask id="b" x="0" y="0" width="2000" height="1000"><path fill="url(#a)" d="M0 0h2000v1000H0z"/></mask><path fill="rgba(255, 255, 255, 0)" d="M0 0h2000v1000H0z"/><g style="transform-origin:center center" mask="url(#b)"><path stroke="#8e92db" stroke-width="2.641032" fill="none" d="m127.358 0 63.534 36.681v73.362l-63.534 36.681-63.533-36.68V36.68ZM255.008 0l63.534 36.681v73.362l-63.534 36.681-63.533-36.68V36.68ZM382.658 0l63.534 36.681v73.362l-63.534 36.681-63.533-36.68V36.68ZM510.308 0l63.534 36.681v73.362l-63.534 36.681-63.533-36.68V36.68ZM637.958 0l63.534 36.681v73.362l-63.534 36.681-63.533-36.68V36.68ZM765.608 0l63.534 36.681v73.362l-63.534 36.681-63.533-36.68V36.68Z"/><path stroke="#8e92db" stroke-width="2.641032" fill="#8e92db82" d="m893.258 0 63.534 36.681v73.362l-63.534 36.681-63.533-36.68V36.68Z"/><path stroke="#8e92db" stroke-width="2.641032" fill="#8e92dbc7" d="m1020.908 0 63.534 36.681v73.362l-63.534 36.681-63.533-36.68V36.68Z"/><path stroke="#8e92db" stroke-width="2.641032" fill="none" d="m1148.558 0 63.534 36.681v73.362l-63.534 36.681-63.533-36.68V36.68Z"/><path stroke="#8e92db" stroke-width="2.641032" fill="#8e92db91" d="m1276.208 0 63.534 36.681v73.362l-63.534 36.681-63.533-36.68V36.68Z"/><path stroke="#8e92db" stroke-width="2.641032" fill="#8e92db68" d="m1403.858 0 63.534 36.681v73.362l-63.534 36.681-63.533-36.68V36.68Z"/><path stroke="#8e92db" stroke-width="2.641032" fill="none" d="m1531.508 0 63.534 36.681v73.362l-63.534 36.681-63.533-36.68V36.68ZM1659.158 0l63.534 36.681v73.362l-63.534 36.681-63.533-36.68V36.68ZM1786.808 0l63.534 36.681v73.362l-63.534 36.681-63.533-36.68V36.68Z"/><path stroke="#8e92db" stroke-width="2.641032" fill="#8e92db75" d="m1914.458 0 63.534 36.681v73.362l-63.534 36.681-63.533-36.68V36.68Z"/><path stroke="#8e92db" stroke-width="2.641032" fill="#8e92db73" d="m2042.108 0 63.534 36.681v73.362l-63.534 36.681-63.533-36.68V36.68Z"/><path stroke="#8e92db" stroke-width="2.641032" fill="none" d="m2169.758 0 63.534 36.681v73.362l-63.534 36.681-63.533-36.68V36.68ZM2297.408 0l63.534 36.681v73.362l-63.534 36.681-63.533-36.68V36.68Z"/><path stroke="#8e92db" stroke-width="2.641032" fill="#8e92db85" d="m63.533 110.043 63.534 36.681v73.362l-63.534 36.681L0 220.087v-73.363Z"/><path stroke="#8e92db" stroke-width="2.641032" fill="#8e92dbe2" d="m191.183 110.043 63.534 36.681v73.362l-63.534 36.681-63.533-36.68v-73.363Z"/><path stroke="#8e92db" stroke-width="2.641032" fill="none" d="m318.833 110.043 63.534 36.681v73.362l-63.534 36.681-63.533-36.68v-73.363ZM446.483 110.043l63.534 36.681v73.362l-63.534 36.681-63.533-36.68v-73.363ZM574.133 110.043l63.534 36.681v73.362l-63.534 36.681-63.533-36.68v-73.363ZM701.783 110.043l63.534 36.681v73.362l-63.534 36.681-63.533-36.68v-73.363Z"/><path stroke="#8e92db" stroke-width="2.641032" fill="#8e92db0d" d="m829.433 110.043 63.534 36.681v73.362l-63.534 36.681-63.533-36.68v-73.363Z"/><path stroke="#8e92db" stroke-width="2.641032" fill="none" d="m957.083 110.043 63.534 36.681v73.362l-63.534 36.681-63.533-36.68v-73.363ZM1084.733 110.043l63.534 36.681v73.362l-63.534 36.681-63.533-36.68v-73.363Z"/><path stroke="#8e92db" stroke-width="2.641032" fill="#8e92db6b" d="m1212.383 110.043 63.534 36.681v73.362l-63.534 36.681-63.533-36.68v-73.363Z"/><path stroke="#8e92db" stroke-width="2.641032" fill="#8e92dbf3" d="m1340.033 110.043 63.534 36.681v73.362l-63.534 36.681-63.533-36.68v-73.363Z"/><path stroke="#8e92db" stroke-width="2.641032" fill="none" d="m1467.683 110.043 63.534 36.681v73.362l-63.534 36.681-63.533-36.68v-73.363ZM1595.333 110.043l63.534 36.681v73.362l-63.534 36.681-63.533-36.68v-73.363Z"/><path stroke="#8e92db" stroke-width="2.641032" fill="#8e92db3f" d="m1722.983 110.043 63.534 36.681v73.362l-63.534 36.681-63.533-36.68v-73.363Z"/><path stroke="#8e92db" stroke-width="2.641032" fill="none" d="m1850.633 110.043 63.534 36.681v73.362l-63.534 36.681-63.533-36.68v-73.363ZM1978.283 110.043l63.534 36.681v73.362l-63.534 36.681-63.533-36.68v-73.363ZM2105.933 110.043l63.534 36.681v73.362l-63.534 36.681-63.533-36.68v-73.363Z"/><path stroke="#8e92db" stroke-width="2.641032" fill="#8e92db22" d="m2233.583 110.043 63.534 36.681v73.362l-63.534 36.681-63.533-36.68v-73.363Z"/><path stroke="#8e92db" stroke-width="2.641032" fill="none" d="m127.358 220.086 63.534 36.681v73.362l-63.534 36.681-63.533-36.68v-73.363ZM255.008 220.086l63.534 36.681v73.362l-63.534 36.681-63.533-36.68v-73.363ZM382.658 220.086l63.534 36.681v73.362l-63.534 36.681-63.533-36.68v-73.363ZM510.308 220.086l63.534 36.681v73.362l-63.534 36.681-63.533-36.68v-73.363Z"/><path stroke="#8e92db" stroke-width="2.641032" fill="#8e92dbfc" d="m637.958 220.086 63.534 36.681v73.362l-63.534 36.681-63.533-36.68v-73.363Z"/><path stroke="#8e92db" stroke-width="2.641032" fill="none" d="m765.608 220.086 63.534 36.681v73.362l-63.534 36.681-63.533-36.68v-73.363ZM893.258 220.086l63.534 36.681v73.362l-63.534 36.681-63.533-36.68v-73.363Z"/><path stroke="#8e92db" stroke-width="2.641032" fill="#8e92dbea" d="m1020.908 220.086 63.534 36.681v73.362l-63.534 36.681-63.533-36.68v-73.363Z"/><path stroke="#8e92db" stroke-width="2.641032" fill="#8e92db2c" d="m1148.558 220.086 63.534 36.681v73.362l-63.534 36.681-63.533-36.68v-73.363Z"/><path stroke="#8e92db" stroke-width="2.641032" fill="none" d="m1276.208 220.086 63.534 36.681v73.362l-63.534 36.681-63.533-36.68v-73.363ZM1403.858 220.086l63.534 36.681v73.362l-63.534 36.681-63.533-36.68v-73.363ZM1531.508 220.086l63.534 36.681v73.362l-63.534 36.681-63.533-36.68v-73.363ZM1659.158 220.086l63.534 36.681v73.362l-63.534 36.681-63.533-36.68v-73.363Z"/><path stroke="#8e92db" stroke-width="2.641032" fill="#8e92db03" d="m1786.808 220.086 63.534 36.681v73.362l-63.534 36.681-63.533-36.68v-73.363Z"/><path stroke="#8e92db" stroke-width="2.641032" fill="none" d="m1914.458 220.086 63.534 36.681v73.362l-63.534 36.681-63.533-36.68v-73.363ZM2042.108 220.086l63.534 36.681v73.362l-63.534 36.681-63.533-36.68v-73.363Z"/><path stroke="#8e92db" stroke-width="2.641032" fill="#8e92dbb7" d="m2169.758 220.086 63.534 36.681v73.362l-63.534 36.681-63.533-36.68v-73.363Z"/><path stroke="#8e92db" stroke-width="2.641032" fill="none" d="m2297.408 220.086 63.534 36.681v73.362l-63.534 36.681-63.533-36.68v-73.363ZM63.533 330.13l63.534 36.68v73.362l-63.534 36.681L0 440.173V366.81Z"/><path stroke="#8e92db" stroke-width="2.641032" fill="#8e92dbb1" d="m191.183 330.13 63.534 36.68v73.362l-63.534 36.681-63.533-36.68V366.81Z"/><path stroke="#8e92db" stroke-width="2.641032" fill="none" d="m318.833 330.13 63.534 36.68v73.362l-63.534 36.681-63.533-36.68V366.81ZM446.483 330.13l63.534 36.68v73.362l-63.534 36.681-63.533-36.68V366.81ZM574.133 330.13l63.534 36.68v73.362l-63.534 36.681-63.533-36.68V366.81ZM701.783 330.13l63.534 36.68v73.362l-63.534 36.681-63.533-36.68V366.81ZM829.433 330.13l63.534 36.68v73.362l-63.534 36.681-63.533-36.68V366.81ZM957.083 330.13l63.534 36.68v73.362l-63.534 36.681-63.533-36.68V366.81ZM1084.733 330.13l63.534 36.68v73.362l-63.534 36.681-63.533-36.68V366.81Z"/><path stroke="#8e92db" stroke-width="2.641032" fill="#8e92dbc4" d="m1212.383 330.13 63.534 36.68v73.362l-63.534 36.681-63.533-36.68V366.81Z"/><path stroke="#8e92db" stroke-width="2.641032" fill="#8e92dbf4" d="m1340.033 330.13 63.534 36.68v73.362l-63.534 36.681-63.533-36.68V366.81Z"/><path stroke="#8e92db" stroke-width="2.641032" fill="none" d="m1467.683 330.13 63.534 36.68v73.362l-63.534 36.681-63.533-36.68V366.81ZM1595.333 330.13l63.534 36.68v73.362l-63.534 36.681-63.533-36.68V366.81ZM1722.983 330.13l63.534 36.68v73.362l-63.534 36.681-63.533-36.68V366.81ZM1850.633 330.13l63.534 36.68v73.362l-63.534 36.681-63.533-36.68V366.81ZM1978.283 330.13l63.534 36.68v73.362l-63.534 36.681-63.533-36.68V366.81Z"/><path stroke="#8e92db" stroke-width="2.641032" fill="#8e92dbf0" d="m2105.933 330.13 63.534 36.68v73.362l-63.534 36.681-63.533-36.68V366.81Z"/><path stroke="#8e92db" stroke-width="2.641032" fill="none" d="m2233.583 330.13 63.534 36.68v73.362l-63.534 36.681-63.533-36.68V366.81Z"/><path stroke="#8e92db" stroke-width="2.641032" fill="#8e92dbb2" d="m127.358 440.172 63.534 36.681v73.363l-63.534 36.68-63.533-36.68v-73.363Z"/><path stroke="#8e92db" stroke-width="2.641032" fill="none" d="m255.008 440.172 63.534 36.681v73.363l-63.534 36.68-63.533-36.68v-73.363ZM382.658 440.172l63.534 36.681v73.363l-63.534 36.68-63.533-36.68v-73.363Z"/><path stroke="#8e92db" stroke-width="2.641032" fill="#8e92db61" d="m510.308 440.172 63.534 36.681v73.363l-63.534 36.68-63.533-36.68v-73.363Z"/><path stroke="#8e92db" stroke-width="2.641032" fill="none" d="m637.958 440.172 63.534 36.681v73.363l-63.534 36.68-63.533-36.68v-73.363ZM765.608 440.172l63.534 36.681v73.363l-63.534 36.68-63.533-36.68v-73.363ZM893.258 440.172l63.534 36.681v73.363l-63.534 36.68-63.533-36.68v-73.363ZM1020.908 440.172l63.534 36.681v73.363l-63.534 36.68-63.533-36.68v-73.363ZM1148.558 440.172l63.534 36.681v73.363l-63.534 36.68-63.533-36.68v-73.363ZM1276.208 440.172l63.534 36.681v73.363l-63.534 36.68-63.533-36.68v-73.363ZM1403.858 440.172l63.534 36.681v73.363l-63.534 36.68-63.533-36.68v-73.363ZM1531.508 440.172l63.534 36.681v73.363l-63.534 36.68-63.533-36.68v-73.363ZM1659.158 440.172l63.534 36.681v73.363l-63.534 36.68-63.533-36.68v-73.363ZM1786.808 440.172l63.534 36.681v73.363l-63.534 36.68-63.533-36.68v-73.363ZM1914.458 440.172l63.534 36.681v73.363l-63.534 36.68-63.533-36.68v-73.363ZM2042.108 440.172l63.534 36.681v73.363l-63.534 36.68-63.533-36.68v-73.363Z"/><path stroke="#8e92db" stroke-width="2.641032" fill="#8e92dba7" d="m2169.758 440.172 63.534 36.681v73.363l-63.534 36.68-63.533-36.68v-73.363Z"/><path stroke="#8e92db" stroke-width="2.641032" fill="none" d="m2297.408 440.172 63.534 36.681v73.363l-63.534 36.68-63.533-36.68v-73.363ZM63.533 550.216l63.534 36.68v73.363l-63.534 36.68L0 660.26v-73.362Z"/><path stroke="#8e92db" stroke-width="2.641032" fill="#8e92dbde" d="m191.183 550.216 63.534 36.68v73.363l-63.534 36.68-63.533-36.68v-73.362Z"/><path stroke="#8e92db" stroke-width="2.641032" fill="none" d="m318.833 550.216 63.534 36.68v73.363l-63.534 36.68-63.533-36.68v-73.362ZM446.483 550.216l63.534 36.68v73.363l-63.534 36.68-63.533-36.68v-73.362ZM574.133 550.216l63.534 36.68v73.363l-63.534 36.68-63.533-36.68v-73.362Z"/><path stroke="#8e92db" stroke-width="2.641032" fill="#8e92db51" d="m701.783 550.216 63.534 36.68v73.363l-63.534 36.68-63.533-36.68v-73.362Z"/><path stroke="#8e92db" stroke-width="2.641032" fill="#8e92dbe0" d="m829.433 550.216 63.534 36.68v73.363l-63.534 36.68-63.533-36.68v-73.362Z"/><path stroke="#8e92db" stroke-width="2.641032" fill="none" d="m957.083 550.216 63.534 36.68v73.363l-63.534 36.68-63.533-36.68v-73.362ZM1084.733 550.216l63.534 36.68v73.363l-63.534 36.68-63.533-36.68v-73.362ZM1212.383 550.216l63.534 36.68v73.363l-63.534 36.68-63.533-36.68v-73.362ZM1340.033 550.216l63.534 36.68v73.363l-63.534 36.68-63.533-36.68v-73.362Z"/><path stroke="#8e92db" stroke-width="2.641032" fill="#8e92db5c" d="m1467.683 550.216 63.534 36.68v73.363l-63.534 36.68-63.533-36.68v-73.362Z"/><path stroke="#8e92db" stroke-width="2.641032" fill="#8e92dbec" d="m1595.333 550.216 63.534 36.68v73.363l-63.534 36.68-63.533-36.68v-73.362Z"/><path stroke="#8e92db" stroke-width="2.641032" fill="#8e92db47" d="m1722.983 550.216 63.534 36.68v73.363l-63.534 36.68-63.533-36.68v-73.362Z"/><path stroke="#8e92db" stroke-width="2.641032" fill="none" d="m1850.633 550.216 63.534 36.68v73.363l-63.534 36.68-63.533-36.68v-73.362ZM1978.283 550.216l63.534 36.68v73.363l-63.534 36.68-63.533-36.68v-73.362ZM2105.933 550.216l63.534 36.68v73.363l-63.534 36.68-63.533-36.68v-73.362ZM2233.583 550.216l63.534 36.68v73.363l-63.534 36.68-63.533-36.68v-73.362ZM127.358 660.259l63.534 36.68v73.363l-63.534 36.68-63.533-36.68V696.94ZM255.008 660.259l63.534 36.68v73.363l-63.534 36.68-63.533-36.68V696.94Z"/><path stroke="#8e92db" stroke-width="2.641032" fill="#8e92db33" d="m382.658 660.259 63.534 36.68v73.363l-63.534 36.68-63.533-36.68V696.94Z"/><path stroke="#8e92db" stroke-width="2.641032" fill="none" d="m510.308 660.259 63.534 36.68v73.363l-63.534 36.68-63.533-36.68V696.94Z"/><path stroke="#8e92db" stroke-width="2.641032" fill="#8e92db9f" d="m637.958 660.259 63.534 36.68v73.363l-63.534 36.68-63.533-36.68V696.94Z"/><path stroke="#8e92db" stroke-width="2.641032" fill="none" d="m765.608 660.259 63.534 36.68v73.363l-63.534 36.68-63.533-36.68V696.94Z"/><path stroke="#8e92db" stroke-width="2.641032" fill="#8e92dbbd" d="m893.258 660.259 63.534 36.68v73.363l-63.534 36.68-63.533-36.68V696.94Z"/><path stroke="#8e92db" stroke-width="2.641032" fill="none" d="m1020.908 660.259 63.534 36.68v73.363l-63.534 36.68-63.533-36.68V696.94Z"/><path stroke="#8e92db" stroke-width="2.641032" fill="#8e92dbfe" d="m1148.558 660.259 63.534 36.68v73.363l-63.534 36.68-63.533-36.68V696.94Z"/><path stroke="#8e92db" stroke-width="2.641032" fill="none" d="m1276.208 660.259 63.534 36.68v73.363l-63.534 36.68-63.533-36.68V696.94ZM1403.858 660.259l63.534 36.68v73.363l-63.534 36.68-63.533-36.68V696.94ZM1531.508 660.259l63.534 36.68v73.363l-63.534 36.68-63.533-36.68V696.94Z"/><path stroke="#8e92db" stroke-width="2.641032" fill="#8e92db2b" d="m1659.158 660.259 63.534 36.68v73.363l-63.534 36.68-63.533-36.68V696.94Z"/><path stroke="#8e92db" stroke-width="2.641032" fill="none" d="m1786.808 660.259 63.534 36.68v73.363l-63.534 36.68-63.533-36.68V696.94Z"/><path stroke="#8e92db" stroke-width="2.641032" fill="#8e92dbd6" d="m1914.458 660.259 63.534 36.68v73.363l-63.534 36.68-63.533-36.68V696.94Z"/><path stroke="#8e92db" stroke-width="2.641032" fill="none" d="m2042.108 660.259 63.534 36.68v73.363l-63.534 36.68-63.533-36.68V696.94ZM2169.758 660.259l63.534 36.68v73.363l-63.534 36.68-63.533-36.68V696.94ZM2297.408 660.259l63.534 36.68v73.363l-63.534 36.68-63.533-36.68V696.94Z"/><path stroke="#8e92db" stroke-width="2.641032" fill="#8e92dba0" d="m63.533 770.302 63.534 36.68v73.363l-63.534 36.68L0 880.346v-73.362Z"/><path stroke="#8e92db" stroke-width="2.641032" fill="none" d="m191.183 770.302 63.534 36.68v73.363l-63.534 36.68-63.533-36.68v-73.362ZM318.833 770.302l63.534 36.68v73.363l-63.534 36.68-63.533-36.68v-73.362ZM446.483 770.302l63.534 36.68v73.363l-63.534 36.68-63.533-36.68v-73.362ZM574.133 770.302l63.534 36.68v73.363l-63.534 36.68-63.533-36.68v-73.362ZM701.783 770.302l63.534 36.68v73.363l-63.534 36.68-63.533-36.68v-73.362ZM829.433 770.302l63.534 36.68v73.363l-63.534 36.68-63.533-36.68v-73.362Z"/><path stroke="#8e92db" stroke-width="2.641032" fill="#8e92dba7" d="m957.083 770.302 63.534 36.68v73.363l-63.534 36.68-63.533-36.68v-73.362Z"/><path stroke="#8e92db" stroke-width="2.641032" fill="none" d="m1084.733 770.302 63.534 36.68v73.363l-63.534 36.68-63.533-36.68v-73.362ZM1212.383 770.302l63.534 36.68v73.363l-63.534 36.68-63.533-36.68v-73.362ZM1340.033 770.302l63.534 36.68v73.363l-63.534 36.68-63.533-36.68v-73.362ZM1467.683 770.302l63.534 36.68v73.363l-63.534 36.68-63.533-36.68v-73.362Z"/><path stroke="#8e92db" stroke-width="2.641032" fill="#8e92db35" d="m1595.333 770.302 63.534 36.68v73.363l-63.534 36.68-63.533-36.68v-73.362Z"/><path stroke="#8e92db" stroke-width="2.641032" fill="#8e92dbb6" d="m1722.983 770.302 63.534 36.68v73.363l-63.534 36.68-63.533-36.68v-73.362Z"/><path stroke="#8e92db" stroke-width="2.641032" fill="#8e92db73" d="m1850.633 770.302 63.534 36.68v73.363l-63.534 36.68-63.533-36.68v-73.362Z"/><path stroke="#8e92db" stroke-width="2.641032" fill="none" d="m1978.283 770.302 63.534 36.68v73.363l-63.534 36.68-63.533-36.68v-73.362ZM2105.933 770.302l63.534 36.68v73.363l-63.534 36.68-63.533-36.68v-73.362ZM2233.583 770.302l63.534 36.68v73.363l-63.534 36.68-63.533-36.68v-73.362Z"/><path stroke="#8e92db" stroke-width="2.641032" fill="#8e92db39" d="m127.358 880.345 63.534 36.68v73.363l-63.534 36.681-63.533-36.681v-73.362Z"/><path stroke="#8e92db" stroke-width="2.641032" fill="#8e92dbab" d="m255.008 880.345 63.534 36.68v73.363l-63.534 36.681-63.533-36.681v-73.362Z"/><path stroke="#8e92db" stroke-width="2.641032" fill="#8e92dbc0" d="m382.658 880.345 63.534 36.68v73.363l-63.534 36.681-63.533-36.681v-73.362Z"/><path stroke="#8e92db" stroke-width="2.641032" fill="none" d="m510.308 880.345 63.534 36.68v73.363l-63.534 36.681-63.533-36.681v-73.362ZM637.958 880.345l63.534 36.68v73.363l-63.534 36.681-63.533-36.681v-73.362ZM765.608 880.345l63.534 36.68v73.363l-63.534 36.681-63.533-36.681v-73.362ZM893.258 880.345l63.534 36.68v73.363l-63.534 36.681-63.533-36.681v-73.362ZM1020.908 880.345l63.534 36.68v73.363l-63.534 36.681-63.533-36.681v-73.362ZM1148.558 880.345l63.534 36.68v73.363l-63.534 36.681-63.533-36.681v-73.362ZM1276.208 880.345l63.534 36.68v73.363l-63.534 36.681-63.533-36.681v-73.362Z"/><path stroke="#8e92db" stroke-width="2.641032" fill="#8e92db55" d="m1403.858 880.345 63.534 36.68v73.363l-63.534 36.681-63.533-36.681v-73.362Z"/><path stroke="#8e92db" stroke-width="2.641032" fill="none" d="m1531.508 880.345 63.534 36.68v73.363l-63.534 36.681-63.533-36.681v-73.362Z"/><path stroke="#8e92db" stroke-width="2.641032" fill="#8e92db1e" d="m1659.158 880.345 63.534 36.68v73.363l-63.534 36.681-63.533-36.681v-73.362Z"/><path stroke="#8e92db" stroke-width="2.641032" fill="none" d="m1786.808 880.345 63.534 36.68v73.363l-63.534 36.681-63.533-36.681v-73.362ZM1914.458 880.345l63.534 36.68v73.363l-63.534 36.681-63.533-36.681v-73.362ZM2042.108 880.345l63.534 36.68v73.363l-63.534 36.681-63.533-36.681v-73.362Z"/><path stroke="#8e92db" stroke-width="2.641032" fill="#8e92dba5" d="m2169.758 880.345 63.534 36.68v73.363l-63.534 36.681-63.533-36.681v-73.362Z"/><path stroke="#8e92db" stroke-width="2.641032" fill="none" d="m2297.408 880.345 63.534 36.68v73.363l-63.534 36.681-63.533-36.681v-73.362ZM63.533 990.388l63.534 36.681v73.362l-63.534 36.681L0 1100.431v-73.362ZM191.183 990.388l63.534 36.681v73.362l-63.534 36.681-63.533-36.681v-73.362ZM318.833 990.388l63.534 36.681v73.362l-63.534 36.681-63.533-36.681v-73.362ZM446.483 990.388l63.534 36.681v73.362l-63.534 36.681-63.533-36.681v-73.362Z"/><path stroke="#8e92db" stroke-width="2.641032" fill="#8e92dbb6" d="m574.133 990.388 63.534 36.681v73.362l-63.534 36.681-63.533-36.681v-73.362Z"/><path stroke="#8e92db" stroke-width="2.641032" fill="#8e92db2b" d="m701.783 990.388 63.534 36.681v73.362l-63.534 36.681-63.533-36.681v-73.362Z"/><path stroke="#8e92db" stroke-width="2.641032" fill="none" d="m829.433 990.388 63.534 36.681v73.362l-63.534 36.681-63.533-36.681v-73.362ZM957.083 990.388l63.534 36.681v73.362l-63.534 36.681-63.533-36.681v-73.362Z"/><path stroke="#8e92db" stroke-width="2.641032" fill="#8e92dbe9" d="m1084.733 990.388 63.534 36.681v73.362l-63.534 36.681-63.533-36.681v-73.362Z"/><path stroke="#8e92db" stroke-width="2.641032" fill="none" d="m1212.383 990.388 63.534 36.681v73.362l-63.534 36.681-63.533-36.681v-73.362ZM1340.033 990.388l63.534 36.681v73.362l-63.534 36.681-63.533-36.681v-73.362Z"/><path stroke="#8e92db" stroke-width="2.641032" fill="#8e92dbd1" d="m1467.683 990.388 63.534 36.681v73.362l-63.534 36.681-63.533-36.681v-73.362Z"/><path stroke="#8e92db" stroke-width="2.641032" fill="none" d="m1595.333 990.388 63.534 36.681v73.362l-63.534 36.681-63.533-36.681v-73.362Z"/><path stroke="#8e92db" stroke-width="2.641032" fill="#8e92db5b" d="m1722.983 990.388 63.534 36.681v73.362l-63.534 36.681-63.533-36.681v-73.362Z"/><path stroke="#8e92db" stroke-width="2.641032" fill="none" d="m1850.633 990.388 63.534 36.681v73.362l-63.534 36.681-63.533-36.681v-73.362ZM1978.283 990.388l63.534 36.681v73.362l-63.534 36.681-63.533-36.681v-73.362Z"/><path stroke="#8e92db" stroke-width="2.641032" fill="#8e92dbcb" d="m2105.933 990.388 63.534 36.681v73.362l-63.534 36.681-63.533-36.681v-73.362Z"/><path stroke="#8e92db" stroke-width="2.641032" fill="none" d="m2233.583 990.388 63.534 36.681v73.362l-63.534 36.681-63.533-36.681v-73.362ZM127.358 1100.431l63.534 36.681v73.362l-63.534 36.681-63.533-36.68v-73.363ZM255.008 1100.431l63.534 36.681v73.362l-63.534 36.681-63.533-36.68v-73.363ZM382.658 1100.431l63.534 36.681v73.362l-63.534 36.681-63.533-36.68v-73.363Z"/><path stroke="#8e92db" stroke-width="2.641032" fill="#8e92dba1" d="m510.308 1100.431 63.534 36.681v73.362l-63.534 36.681-63.533-36.68v-73.363Z"/><path stroke="#8e92db" stroke-width="2.641032" fill="#8e92db37" d="m637.958 1100.431 63.534 36.681v73.362l-63.534 36.681-63.533-36.68v-73.363Z"/><path stroke="#8e92db" stroke-width="2.641032" fill="none" d="m765.608 1100.431 63.534 36.681v73.362l-63.534 36.681-63.533-36.68v-73.363ZM893.258 1100.431l63.534 36.681v73.362l-63.534 36.681-63.533-36.68v-73.363ZM1020.908 1100.431l63.534 36.681v73.362l-63.534 36.681-63.533-36.68v-73.363ZM1148.558 1100.431l63.534 36.681v73.362l-63.534 36.681-63.533-36.68v-73.363ZM1276.208 1100.431l63.534 36.681v73.362l-63.534 36.681-63.533-36.68v-73.363ZM1403.858 1100.431l63.534 36.681v73.362l-63.534 36.681-63.533-36.68v-73.363ZM1531.508 1100.431l63.534 36.681v73.362l-63.534 36.681-63.533-36.68v-73.363Z"/><path stroke="#8e92db" stroke-width="2.641032" fill="#8e92dbe2" d="m1659.158 1100.431 63.534 36.681v73.362l-63.534 36.681-63.533-36.68v-73.363Z"/><path stroke="#8e92db" stroke-width="2.641032" fill="#8e92db38" d="m1786.808 1100.431 63.534 36.681v73.362l-63.534 36.681-63.533-36.68v-73.363Z"/><path stroke="#8e92db" stroke-width="2.641032" fill="none" d="m1914.458 1100.431 63.534 36.681v73.362l-63.534 36.681-63.533-36.68v-73.363Z"/><path stroke="#8e92db" stroke-width="2.641032" fill="#8e92db30" d="m2042.108 1100.431 63.534 36.681v73.362l-63.534 36.681-63.533-36.68v-73.363Z"/><path stroke="#8e92db" stroke-width="2.641032" fill="none" d="m2169.758 1100.431 63.534 36.681v73.362l-63.534 36.681-63.533-36.68v-73.363Z"/><path stroke="#8e92db" stroke-width="2.641032" fill="#8e92dbe7" d="m2297.408 1100.431 63.534 36.681v73.362l-63.534 36.681-63.533-36.68v-73.363Z"/><path stroke="#8e92db" stroke-width="2.641032" fill="none" d="m63.533 1210.474 63.534 36.681v73.362l-63.534 36.681L0 1320.518v-73.363Z"/><path stroke="#8e92db" stroke-width="2.641032" fill="#8e92dbdf" d="m191.183 1210.474 63.534 36.681v73.362l-63.534 36.681-63.533-36.68v-73.363Z"/><path stroke="#8e92db" stroke-width="2.641032" fill="#8e92db9e" d="m318.833 1210.474 63.534 36.681v73.362l-63.534 36.681-63.533-36.68v-73.363Z"/><path stroke="#8e92db" stroke-width="2.641032" fill="none" d="m446.483 1210.474 63.534 36.681v73.362l-63.534 36.681-63.533-36.68v-73.363ZM574.133 1210.474l63.534 36.681v73.362l-63.534 36.681-63.533-36.68v-73.363ZM701.783 1210.474l63.534 36.681v73.362l-63.534 36.681-63.533-36.68v-73.363ZM829.433 1210.474l63.534 36.681v73.362l-63.534 36.681-63.533-36.68v-73.363ZM957.083 1210.474l63.534 36.681v73.362l-63.534 36.681-63.533-36.68v-73.363ZM1084.733 1210.474l63.534 36.681v73.362l-63.534 36.681-63.533-36.68v-73.363Z"/><path stroke="#8e92db" stroke-width="2.641032" fill="#8e92db09" d="m1212.383 1210.474 63.534 36.681v73.362l-63.534 36.681-63.533-36.68v-73.363Z"/><path stroke="#8e92db" stroke-width="2.641032" fill="none" d="m1340.033 1210.474 63.534 36.681v73.362l-63.534 36.681-63.533-36.68v-73.363ZM1467.683 1210.474l63.534 36.681v73.362l-63.534 36.681-63.533-36.68v-73.363Z"/><path stroke="#8e92db" stroke-width="2.641032" fill="#8e92db0f" d="m1595.333 1210.474 63.534 36.681v73.362l-63.534 36.681-63.533-36.68v-73.363Z"/><path stroke="#8e92db" stroke-width="2.641032" fill="none" d="m1722.983 1210.474 63.534 36.681v73.362l-63.534 36.681-63.533-36.68v-73.363ZM1850.633 1210.474l63.534 36.681v73.362l-63.534 36.681-63.533-36.68v-73.363ZM1978.283 1210.474l63.534 36.681v73.362l-63.534 36.681-63.533-36.68v-73.363ZM2105.933 1210.474l63.534 36.681v73.362l-63.534 36.681-63.533-36.68v-73.363ZM2233.583 1210.474l63.534 36.681v73.362l-63.534 36.681-63.533-36.68v-73.363Z"/><path stroke="#8e92db" stroke-width="2.641032" fill="#8e92db2a" d="m127.358 1320.517 63.534 36.681v73.362l-63.534 36.681-63.533-36.68v-73.363Z"/><path stroke="#8e92db" stroke-width="2.641032" fill="#8e92db54" d="m255.008 1320.517 63.534 36.681v73.362l-63.534 36.681-63.533-36.68v-73.363Z"/><path stroke="#8e92db" stroke-width="2.641032" fill="none" d="m382.658 1320.517 63.534 36.681v73.362l-63.534 36.681-63.533-36.68v-73.363Z"/><path stroke="#8e92db" stroke-width="2.641032" fill="#8e92db4e" d="m510.308 1320.517 63.534 36.681v73.362l-63.534 36.681-63.533-36.68v-73.363Z"/><path stroke="#8e92db" stroke-width="2.641032" fill="none" d="m637.958 1320.517 63.534 36.681v73.362l-63.534 36.681-63.533-36.68v-73.363Z"/><path stroke="#8e92db" stroke-width="2.641032" fill="#8e92dbac" d="m765.608 1320.517 63.534 36.681v73.362l-63.534 36.681-63.533-36.68v-73.363Z"/><path stroke="#8e92db" stroke-width="2.641032" fill="none" d="m893.258 1320.517 63.534 36.681v73.362l-63.534 36.681-63.533-36.68v-73.363Z"/><path stroke="#8e92db" stroke-width="2.641032" fill="#8e92db1d" d="m1020.908 1320.517 63.534 36.681v73.362l-63.534 36.681-63.533-36.68v-73.363Z"/><path stroke="#8e92db" stroke-width="2.641032" fill="none" d="m1148.558 1320.517 63.534 36.681v73.362l-63.534 36.681-63.533-36.68v-73.363Z"/><path stroke="#8e92db" stroke-width="2.641032" fill="#8e92db18" d="m1276.208 1320.517 63.534 36.681v73.362l-63.534 36.681-63.533-36.68v-73.363Z"/><path stroke="#8e92db" stroke-width="2.641032" fill="#8e92dbff" d="m1403.858 1320.517 63.534 36.681v73.362l-63.534 36.681-63.533-36.68v-73.363Z"/><path stroke="#8e92db" stroke-width="2.641032" fill="#8e92dbb5" d="m1531.508 1320.517 63.534 36.681v73.362l-63.534 36.681-63.533-36.68v-73.363Z"/><path stroke="#8e92db" stroke-width="2.641032" fill="none" d="m1659.158 1320.517 63.534 36.681v73.362l-63.534 36.681-63.533-36.68v-73.363ZM1786.808 1320.517l63.534 36.681v73.362l-63.534 36.681-63.533-36.68v-73.363ZM1914.458 1320.517l63.534 36.681v73.362l-63.534 36.681-63.533-36.68v-73.363ZM2042.108 1320.517l63.534 36.681v73.362l-63.534 36.681-63.533-36.68v-73.363ZM2169.758 1320.517l63.534 36.681v73.362l-63.534 36.681-63.533-36.68v-73.363ZM2297.408 1320.517l63.534 36.681v73.362l-63.534 36.681-63.533-36.68v-73.363ZM63.533 1430.56l63.534 36.681v73.362l-63.534 36.681L0 1540.604v-73.363ZM191.183 1430.56l63.534 36.681v73.362l-63.534 36.681-63.533-36.68v-73.363ZM318.833 1430.56l63.534 36.681v73.362l-63.534 36.681-63.533-36.68v-73.363ZM446.483 1430.56l63.534 36.681v73.362l-63.534 36.681-63.533-36.68v-73.363ZM574.133 1430.56l63.534 36.681v73.362l-63.534 36.681-63.533-36.68v-73.363ZM701.783 1430.56l63.534 36.681v73.362l-63.534 36.681-63.533-36.68v-73.363ZM829.433 1430.56l63.534 36.681v73.362l-63.534 36.681-63.533-36.68v-73.363Z"/><path stroke="#8e92db" stroke-width="2.641032" fill="#8e92dbd7" d="m957.083 1430.56 63.534 36.681v73.362l-63.534 36.681-63.533-36.68v-73.363Z"/><path stroke="#8e92db" stroke-width="2.641032" fill="none" d="m1084.733 1430.56 63.534 36.681v73.362l-63.534 36.681-63.533-36.68v-73.363ZM1212.383 1430.56l63.534 36.681v73.362l-63.534 36.681-63.533-36.68v-73.363Z"/><path stroke="#8e92db" stroke-width="2.641032" fill="#8e92db4f" d="m1340.033 1430.56 63.534 36.681v73.362l-63.534 36.681-63.533-36.68v-73.363Z"/><path stroke="#8e92db" stroke-width="2.641032" fill="none" d="m1467.683 1430.56 63.534 36.681v73.362l-63.534 36.681-63.533-36.68v-73.363ZM1595.333 1430.56l63.534 36.681v73.362l-63.534 36.681-63.533-36.68v-73.363Z"/><path stroke="#8e92db" stroke-width="2.641032" fill="#8e92db60" d="m1722.983 1430.56 63.534 36.681v73.362l-63.534 36.681-63.533-36.68v-73.363Z"/><path stroke="#8e92db" stroke-width="2.641032" fill="none" d="m1850.633 1430.56 63.534 36.681v73.362l-63.534 36.681-63.533-36.68v-73.363Z"/><path stroke="#8e92db" stroke-width="2.641032" fill="#8e92dbe6" d="m1978.283 1430.56 63.534 36.681v73.362l-63.534 36.681-63.533-36.68v-73.363Z"/><path stroke="#8e92db" stroke-width="2.641032" fill="#8e92db37" d="m2105.933 1430.56 63.534 36.681v73.362l-63.534 36.681-63.533-36.68v-73.363Z"/><path stroke="#8e92db" stroke-width="2.641032" fill="#8e92db5b" d="m2233.583 1430.56 63.534 36.681v73.362l-63.534 36.681-63.533-36.68v-73.363Z"/><path stroke="#8e92db" stroke-width="2.641032" fill="none" d="m127.358 1540.603 63.534 36.681v73.363l-63.534 36.68-63.533-36.68v-73.363Z"/><path stroke="#8e92db" stroke-width="2.641032" fill="#8e92dbfa" d="m255.008 1540.603 63.534 36.681v73.363l-63.534 36.68-63.533-36.68v-73.363Z"/><path stroke="#8e92db" stroke-width="2.641032" fill="none" d="m382.658 1540.603 63.534 36.681v73.363l-63.534 36.68-63.533-36.68v-73.363ZM510.308 1540.603l63.534 36.681v73.363l-63.534 36.68-63.533-36.68v-73.363ZM637.958 1540.603l63.534 36.681v73.363l-63.534 36.68-63.533-36.68v-73.363ZM765.608 1540.603l63.534 36.681v73.363l-63.534 36.68-63.533-36.68v-73.363ZM893.258 1540.603l63.534 36.681v73.363l-63.534 36.68-63.533-36.68v-73.363Z"/><path stroke="#8e92db" stroke-width="2.641032" fill="#8e92db1d" d="m1020.908 1540.603 63.534 36.681v73.363l-63.534 36.68-63.533-36.68v-73.363Z"/><path stroke="#8e92db" stroke-width="2.641032" fill="#8e92db1b" d="m1148.558 1540.603 63.534 36.681v73.363l-63.534 36.68-63.533-36.68v-73.363Z"/><path stroke="#8e92db" stroke-width="2.641032" fill="none" d="m1276.208 1540.603 63.534 36.681v73.363l-63.534 36.68-63.533-36.68v-73.363Z"/><path stroke="#8e92db" stroke-width="2.641032" fill="#8e92dbf4" d="m1403.858 1540.603 63.534 36.681v73.363l-63.534 36.68-63.533-36.68v-73.363Z"/><path stroke="#8e92db" stroke-width="2.641032" fill="none" d="m1531.508 1540.603 63.534 36.681v73.363l-63.534 36.68-63.533-36.68v-73.363ZM1659.158 1540.603l63.534 36.681v73.363l-63.534 36.68-63.533-36.68v-73.363ZM1786.808 1540.603l63.534 36.681v73.363l-63.534 36.68-63.533-36.68v-73.363ZM1914.458 1540.603l63.534 36.681v73.363l-63.534 36.68-63.533-36.68v-73.363ZM2042.108 1540.603l63.534 36.681v73.363l-63.534 36.68-63.533-36.68v-73.363ZM2169.758 1540.603l63.534 36.681v73.363l-63.534 36.68-63.533-36.68v-73.363ZM2297.408 1540.603l63.534 36.681v73.363l-63.534 36.68-63.533-36.68v-73.363ZM63.533 1650.647l63.534 36.68v73.363l-63.534 36.68L0 1760.69v-73.362Z"/><path stroke="#8e92db" stroke-width="2.641032" fill="#8e92db2e" d="m191.183 1650.647 63.534 36.68v73.363l-63.534 36.68-63.533-36.68v-73.362Z"/><path stroke="#8e92db" stroke-width="2.641032" fill="#8e92dbbf" d="m318.833 1650.647 63.534 36.68v73.363l-63.534 36.68-63.533-36.68v-73.362Z"/><path stroke="#8e92db" stroke-width="2.641032" fill="none" d="m446.483 1650.647 63.534 36.68v73.363l-63.534 36.68-63.533-36.68v-73.362ZM574.133 1650.647l63.534 36.68v73.363l-63.534 36.68-63.533-36.68v-73.362ZM701.783 1650.647l63.534 36.68v73.363l-63.534 36.68-63.533-36.68v-73.362ZM829.433 1650.647l63.534 36.68v73.363l-63.534 36.68-63.533-36.68v-73.362Z"/><path stroke="#8e92db" stroke-width="2.641032" fill="#8e92dbb4" d="m957.083 1650.647 63.534 36.68v73.363l-63.534 36.68-63.533-36.68v-73.362Z"/><path stroke="#8e92db" stroke-width="2.641032" fill="#8e92dbdb" d="m1084.733 1650.647 63.534 36.68v73.363l-63.534 36.68-63.533-36.68v-73.362Z"/><path stroke="#8e92db" stroke-width="2.641032" fill="none" d="m1212.383 1650.647 63.534 36.68v73.363l-63.534 36.68-63.533-36.68v-73.362ZM1340.033 1650.647l63.534 36.68v73.363l-63.534 36.68-63.533-36.68v-73.362Z"/><path stroke="#8e92db" stroke-width="2.641032" fill="#8e92db5f" d="m1467.683 1650.647 63.534 36.68v73.363l-63.534 36.68-63.533-36.68v-73.362Z"/><path stroke="#8e92db" stroke-width="2.641032" fill="none" d="m1595.333 1650.647 63.534 36.68v73.363l-63.534 36.68-63.533-36.68v-73.362ZM1722.983 1650.647l63.534 36.68v73.363l-63.534 36.68-63.533-36.68v-73.362Z"/><path stroke="#8e92db" stroke-width="2.641032" fill="#8e92db5d" d="m1850.633 1650.647 63.534 36.68v73.363l-63.534 36.68-63.533-36.68v-73.362Z"/><path stroke="#8e92db" stroke-width="2.641032" fill="none" d="m1978.283 1650.647 63.534 36.68v73.363l-63.534 36.68-63.533-36.68v-73.362ZM2105.933 1650.647l63.534 36.68v73.363l-63.534 36.68-63.533-36.68v-73.362Z"/><path stroke="#8e92db" stroke-width="2.641032" fill="#8e92db1e" d="m2233.583 1650.647 63.534 36.68v73.363l-63.534 36.68-63.533-36.68v-73.362Z"/><path stroke="#8e92db" stroke-width="2.641032" fill="none" d="m127.358 1760.69 63.534 36.68v73.363l-63.534 36.68-63.533-36.68v-73.362Z"/><path stroke="#8e92db" stroke-width="2.641032" fill="#8e92dbf3" d="m255.008 1760.69 63.534 36.68v73.363l-63.534 36.68-63.533-36.68v-73.362Z"/><path stroke="#8e92db" stroke-width="2.641032" fill="none" d="m382.658 1760.69 63.534 36.68v73.363l-63.534 36.68-63.533-36.68v-73.362ZM510.308 1760.69l63.534 36.68v73.363l-63.534 36.68-63.533-36.68v-73.362Z"/><path stroke="#8e92db" stroke-width="2.641032" fill="#8e92dbe4" d="m637.958 1760.69 63.534 36.68v73.363l-63.534 36.68-63.533-36.68v-73.362Z"/><path stroke="#8e92db" stroke-width="2.641032" fill="none" d="m765.608 1760.69 63.534 36.68v73.363l-63.534 36.68-63.533-36.68v-73.362ZM893.258 1760.69l63.534 36.68v73.363l-63.534 36.68-63.533-36.68v-73.362Z"/><path stroke="#8e92db" stroke-width="2.641032" fill="#8e92dbd6" d="m1020.908 1760.69 63.534 36.68v73.363l-63.534 36.68-63.533-36.68v-73.362Z"/><path stroke="#8e92db" stroke-width="2.641032" fill="none" d="m1148.558 1760.69 63.534 36.68v73.363l-63.534 36.68-63.533-36.68v-73.362ZM1276.208 1760.69l63.534 36.68v73.363l-63.534 36.68-63.533-36.68v-73.362Z"/><path stroke="#8e92db" stroke-width="2.641032" fill="#8e92db9c" d="m1403.858 1760.69 63.534 36.68v73.363l-63.534 36.68-63.533-36.68v-73.362Z"/><path stroke="#8e92db" stroke-width="2.641032" fill="#8e92db9a" d="m1531.508 1760.69 63.534 36.68v73.363l-63.534 36.68-63.533-36.68v-73.362Z"/><path stroke="#8e92db" stroke-width="2.641032" fill="none" d="m1659.158 1760.69 63.534 36.68v73.363l-63.534 36.68-63.533-36.68v-73.362Z"/><path stroke="#8e92db" stroke-width="2.641032" fill="#8e92db99" d="m1786.808 1760.69 63.534 36.68v73.363l-63.534 36.68-63.533-36.68v-73.362Z"/><path stroke="#8e92db" stroke-width="2.641032" fill="none" d="m1914.458 1760.69 63.534 36.68v73.363l-63.534 36.68-63.533-36.68v-73.362Z"/><path stroke="#8e92db" stroke-width="2.641032" fill="#8e92db87" d="m2042.108 1760.69 63.534 36.68v73.363l-63.534 36.68-63.533-36.68v-73.362Z"/><path stroke="#8e92db" stroke-width="2.641032" fill="none" d="m2169.758 1760.69 63.534 36.68v73.363l-63.534 36.68-63.533-36.68v-73.362Z"/><path stroke="#8e92db" stroke-width="2.641032" fill="#8e92db0a" d="m2297.408 1760.69 63.534 36.68v73.363l-63.534 36.68-63.533-36.68v-73.362Z"/><path stroke="#8e92db" stroke-width="2.641032" fill="#8e92db18" d="m63.533 1870.733 63.534 36.68v73.363l-63.534 36.68L0 1980.777v-73.362Z"/><path stroke="#8e92db" stroke-width="2.641032" fill="none" d="m191.183 1870.733 63.534 36.68v73.363l-63.534 36.68-63.533-36.68v-73.362ZM318.833 1870.733l63.534 36.68v73.363l-63.534 36.68-63.533-36.68v-73.362Z"/><path stroke="#8e92db" stroke-width="2.641032" fill="#8e92db4b" d="m446.483 1870.733 63.534 36.68v73.363l-63.534 36.68-63.533-36.68v-73.362Z"/><path stroke="#8e92db" stroke-width="2.641032" fill="#8e92dbf7" d="m574.133 1870.733 63.534 36.68v73.363l-63.534 36.68-63.533-36.68v-73.362Z"/><path stroke="#8e92db" stroke-width="2.641032" fill="none" d="m701.783 1870.733 63.534 36.68v73.363l-63.534 36.68-63.533-36.68v-73.362ZM829.433 1870.733l63.534 36.68v73.363l-63.534 36.68-63.533-36.68v-73.362ZM957.083 1870.733l63.534 36.68v73.363l-63.534 36.68-63.533-36.68v-73.362ZM1084.733 1870.733l63.534 36.68v73.363l-63.534 36.68-63.533-36.68v-73.362ZM1212.383 1870.733l63.534 36.68v73.363l-63.534 36.68-63.533-36.68v-73.362ZM1340.033 1870.733l63.534 36.68v73.363l-63.534 36.68-63.533-36.68v-73.362Z"/><path stroke="#8e92db" stroke-width="2.641032" fill="#8e92dbd9" d="m1467.683 1870.733 63.534 36.68v73.363l-63.534 36.68-63.533-36.68v-73.362Z"/><path stroke="#8e92db" stroke-width="2.641032" fill="none" d="m1595.333 1870.733 63.534 36.68v73.363l-63.534 36.68-63.533-36.68v-73.362ZM1722.983 1870.733l63.534 36.68v73.363l-63.534 36.68-63.533-36.68v-73.362ZM1850.633 1870.733l63.534 36.68v73.363l-63.534 36.68-63.533-36.68v-73.362Z"/><path stroke="#8e92db" stroke-width="2.641032" fill="#8e92db34" d="m1978.283 1870.733 63.534 36.68v73.363l-63.534 36.68-63.533-36.68v-73.362Z"/><path stroke="#8e92db" stroke-width="2.641032" fill="none" d="m2105.933 1870.733 63.534 36.68v73.363l-63.534 36.68-63.533-36.68v-73.362ZM2233.583 1870.733l63.534 36.68v73.363l-63.534 36.68-63.533-36.68v-73.362ZM127.358 1980.776l63.534 36.68v73.363l-63.534 36.681-63.533-36.681v-73.362Z"/><path stroke="#8e92db" stroke-width="2.641032" fill="#8e92dbde" d="m255.008 1980.776 63.534 36.68v73.363l-63.534 36.681-63.533-36.681v-73.362Z"/><path stroke="#8e92db" stroke-width="2.641032" fill="#8e92db45" d="m382.658 1980.776 63.534 36.68v73.363l-63.534 36.681-63.533-36.681v-73.362Z"/><path stroke="#8e92db" stroke-width="2.641032" fill="none" d="m510.308 1980.776 63.534 36.68v73.363l-63.534 36.681-63.533-36.681v-73.362ZM637.958 1980.776l63.534 36.68v73.363l-63.534 36.681-63.533-36.681v-73.362Z"/><path stroke="#8e92db" stroke-width="2.641032" fill="#8e92db12" d="m765.608 1980.776 63.534 36.68v73.363l-63.534 36.681-63.533-36.681v-73.362Z"/><path stroke="#8e92db" stroke-width="2.641032" fill="#8e92dbec" d="m893.258 1980.776 63.534 36.68v73.363l-63.534 36.681-63.533-36.681v-73.362Z"/><path stroke="#8e92db" stroke-width="2.641032" fill="none" d="m1020.908 1980.776 63.534 36.68v73.363l-63.534 36.681-63.533-36.681v-73.362ZM1148.558 1980.776l63.534 36.68v73.363l-63.534 36.681-63.533-36.681v-73.362ZM1276.208 1980.776l63.534 36.68v73.363l-63.534 36.681-63.533-36.681v-73.362ZM1403.858 1980.776l63.534 36.68v73.363l-63.534 36.681-63.533-36.681v-73.362ZM1531.508 1980.776l63.534 36.68v73.363l-63.534 36.681-63.533-36.681v-73.362Z"/><path stroke="#8e92db" stroke-width="2.641032" fill="#8e92db27" d="m1659.158 1980.776 63.534 36.68v73.363l-63.534 36.681-63.533-36.681v-73.362Z"/><path stroke="#8e92db" stroke-width="2.641032" fill="none" d="m1786.808 1980.776 63.534 36.68v73.363l-63.534 36.681-63.533-36.681v-73.362ZM1914.458 1980.776l63.534 36.68v73.363l-63.534 36.681-63.533-36.681v-73.362Z"/><path stroke="#8e92db" stroke-width="2.641032" fill="#8e92db09" d="m2042.108 1980.776 63.534 36.68v73.363l-63.534 36.681-63.533-36.681v-73.362Z"/><path stroke="#8e92db" stroke-width="2.641032" fill="none" d="m2169.758 1980.776 63.534 36.68v73.363l-63.534 36.681-63.533-36.681v-73.362Z"/><path stroke="#8e92db" stroke-width="2.641032" fill="#8e92db66" d="m2297.408 1980.776 63.534 36.68v73.363l-63.534 36.681-63.533-36.681v-73.362Z"/><path stroke="#8e92db" stroke-width="2.641032" fill="none" d="m63.533 2090.819 63.534 36.681v73.362l-63.534 36.681L0 2200.863V2127.5ZM191.183 2090.819l63.534 36.681v73.362l-63.534 36.681-63.533-36.68V2127.5ZM318.833 2090.819l63.534 36.681v73.362l-63.534 36.681-63.533-36.68V2127.5Z"/><path stroke="#8e92db" stroke-width="2.641032" fill="#8e92db52" d="m446.483 2090.819 63.534 36.681v73.362l-63.534 36.681-63.533-36.68V2127.5Z"/><path stroke="#8e92db" stroke-width="2.641032" fill="#8e92db50" d="m574.133 2090.819 63.534 36.681v73.362l-63.534 36.681-63.533-36.68V2127.5Z"/><path stroke="#8e92db" stroke-width="2.641032" fill="#8e92dbfa" d="m701.783 2090.819 63.534 36.681v73.362l-63.534 36.681-63.533-36.68V2127.5Z"/><path stroke="#8e92db" stroke-width="2.641032" fill="#8e92dbb2" d="m829.433 2090.819 63.534 36.681v73.362l-63.534 36.681-63.533-36.68V2127.5Z"/><path stroke="#8e92db" stroke-width="2.641032" fill="none" d="m957.083 2090.819 63.534 36.681v73.362l-63.534 36.681-63.533-36.68V2127.5Z"/><path stroke="#8e92db" stroke-width="2.641032" fill="#8e92dbe2" d="m1084.733 2090.819 63.534 36.681v73.362l-63.534 36.681-63.533-36.68V2127.5Z"/><path stroke="#8e92db" stroke-width="2.641032" fill="none" d="m1212.383 2090.819 63.534 36.681v73.362l-63.534 36.681-63.533-36.68V2127.5ZM1340.033 2090.819l63.534 36.681v73.362l-63.534 36.681-63.533-36.68V2127.5ZM1467.683 2090.819l63.534 36.681v73.362l-63.534 36.681-63.533-36.68V2127.5Z"/><path stroke="#8e92db" stroke-width="2.641032" fill="#8e92db0b" d="m1595.333 2090.819 63.534 36.681v73.362l-63.534 36.681-63.533-36.68V2127.5Z"/><path stroke="#8e92db" stroke-width="2.641032" fill="none" d="m1722.983 2090.819 63.534 36.681v73.362l-63.534 36.681-63.533-36.68V2127.5ZM1850.633 2090.819l63.534 36.681v73.362l-63.534 36.681-63.533-36.68V2127.5ZM1978.283 2090.819l63.534 36.681v73.362l-63.534 36.681-63.533-36.68V2127.5ZM2105.933 2090.819l63.534 36.681v73.362l-63.534 36.681-63.533-36.68V2127.5ZM2233.583 2090.819l63.534 36.681v73.362l-63.534 36.681-63.533-36.68V2127.5ZM127.358 2200.862l63.534 36.681v73.362l-63.534 36.681-63.533-36.68v-73.363Z"/><path stroke="#8e92db" stroke-width="2.641032" fill="#8e92db88" d="m255.008 2200.862 63.534 36.681v73.362l-63.534 36.681-63.533-36.68v-73.363Z"/><path stroke="#8e92db" stroke-width="2.641032" fill="none" d="m382.658 2200.862 63.534 36.681v73.362l-63.534 36.681-63.533-36.68v-73.363ZM510.308 2200.862l63.534 36.681v73.362l-63.534 36.681-63.533-36.68v-73.363ZM637.958 2200.862l63.534 36.681v73.362l-63.534 36.681-63.533-36.68v-73.363ZM765.608 2200.862l63.534 36.681v73.362l-63.534 36.681-63.533-36.68v-73.363Z"/><path stroke="#8e92db" stroke-width="2.641032" fill="#8e92db2f" d="m893.258 2200.862 63.534 36.681v73.362l-63.534 36.681-63.533-36.68v-73.363Z"/><path stroke="#8e92db" stroke-width="2.641032" fill="#8e92dba9" d="m1020.908 2200.862 63.534 36.681v73.362l-63.534 36.681-63.533-36.68v-73.363Z"/><path stroke="#8e92db" stroke-width="2.641032" fill="none" d="m1148.558 2200.862 63.534 36.681v73.362l-63.534 36.681-63.533-36.68v-73.363ZM1276.208 2200.862l63.534 36.681v73.362l-63.534 36.681-63.533-36.68v-73.363ZM1403.858 2200.862l63.534 36.681v73.362l-63.534 36.681-63.533-36.68v-73.363ZM1531.508 2200.862l63.534 36.681v73.362l-63.534 36.681-63.533-36.68v-73.363ZM1659.158 2200.862l63.534 36.681v73.362l-63.534 36.681-63.533-36.68v-73.363ZM1786.808 2200.862l63.534 36.681v73.362l-63.534 36.681-63.533-36.68v-73.363ZM1914.458 2200.862l63.534 36.681v73.362l-63.534 36.681-63.533-36.68v-73.363ZM2042.108 2200.862l63.534 36.681v73.362l-63.534 36.681-63.533-36.68v-73.363Z"/><path stroke="#8e92db" stroke-width="2.641032" fill="#8e92db07" d="m2169.758 2200.862 63.534 36.681v73.362l-63.534 36.681-63.533-36.68v-73.363Z"/><path stroke="#8e92db" stroke-width="2.641032" fill="none" d="m2297.408 2200.862 63.534 36.681v73.362l-63.534 36.681-63.533-36.68v-73.363ZM63.533 2310.905l63.534 36.681v73.362l-63.534 36.681L0 2420.95v-73.363Z"/><path stroke="#8e92db" stroke-width="2.641032" fill="#8e92db6e" d="m191.183 2310.905 63.534 36.681v73.362l-63.534 36.681-63.533-36.68v-73.363Z"/><path stroke="#8e92db" stroke-width="2.641032" fill="none" d="m318.833 2310.905 63.534 36.681v73.362l-63.534 36.681-63.533-36.68v-73.363ZM446.483 2310.905l63.534 36.681v73.362l-63.534 36.681-63.533-36.68v-73.363ZM574.133 2310.905l63.534 36.681v73.362l-63.534 36.681-63.533-36.68v-73.363ZM701.783 2310.905l63.534 36.681v73.362l-63.534 36.681-63.533-36.68v-73.363ZM829.433 2310.905l63.534 36.681v73.362l-63.534 36.681-63.533-36.68v-73.363ZM957.083 2310.905l63.534 36.681v73.362l-63.534 36.681-63.533-36.68v-73.363Z"/><path stroke="#8e92db" stroke-width="2.641032" fill="#8e92dbf8" d="m1084.733 2310.905 63.534 36.681v73.362l-63.534 36.681-63.533-36.68v-73.363Z"/><path stroke="#8e92db" stroke-width="2.641032" fill="none" d="m1212.383 2310.905 63.534 36.681v73.362l-63.534 36.681-63.533-36.68v-73.363ZM1340.033 2310.905l63.534 36.681v73.362l-63.534 36.681-63.533-36.68v-73.363ZM1467.683 2310.905l63.534 36.681v73.362l-63.534 36.681-63.533-36.68v-73.363ZM1595.333 2310.905l63.534 36.681v73.362l-63.534 36.681-63.533-36.68v-73.363ZM1722.983 2310.905l63.534 36.681v73.362l-63.534 36.681-63.533-36.68v-73.363Z"/><path stroke="#8e92db" stroke-width="2.641032" fill="#8e92db0a" d="m1850.633 2310.905 63.534 36.681v73.362l-63.534 36.681-63.533-36.68v-73.363Z"/><path stroke="#8e92db" stroke-width="2.641032" fill="none" d="m1978.283 2310.905 63.534 36.681v73.362l-63.534 36.681-63.533-36.68v-73.363ZM2105.933 2310.905l63.534 36.681v73.362l-63.534 36.681-63.533-36.68v-73.363Z"/><path stroke="#8e92db" stroke-width="2.641032" fill="#8e92db08" d="m2233.583 2310.905 63.534 36.681v73.362l-63.534 36.681-63.533-36.68v-73.363Z"/><path stroke="#8e92db" stroke-width="2.641032" fill="none" d="m127.358 2420.948 63.534 36.681v73.362l-63.534 36.681-63.533-36.68v-73.363ZM255.008 2420.948l63.534 36.681v73.362l-63.534 36.681-63.533-36.68v-73.363ZM382.658 2420.948l63.534 36.681v73.362l-63.534 36.681-63.533-36.68v-73.363Z"/><path stroke="#8e92db" stroke-width="2.641032" fill="#8e92dbc8" d="m510.308 2420.948 63.534 36.681v73.362l-63.534 36.681-63.533-36.68v-73.363Z"/><path stroke="#8e92db" stroke-width="2.641032" fill="none" d="m637.958 2420.948 63.534 36.681v73.362l-63.534 36.681-63.533-36.68v-73.363ZM765.608 2420.948l63.534 36.681v73.362l-63.534 36.681-63.533-36.68v-73.363ZM893.258 2420.948l63.534 36.681v73.362l-63.534 36.681-63.533-36.68v-73.363ZM1020.908 2420.948l63.534 36.681v73.362l-63.534 36.681-63.533-36.68v-73.363ZM1148.558 2420.948l63.534 36.681v73.362l-63.534 36.681-63.533-36.68v-73.363Z"/><path stroke="#8e92db" stroke-width="2.641032" fill="#8e92db5e" d="m1276.208 2420.948 63.534 36.681v73.362l-63.534 36.681-63.533-36.68v-73.363Z"/><path stroke="#8e92db" stroke-width="2.641032" fill="none" d="m1403.858 2420.948 63.534 36.681v73.362l-63.534 36.681-63.533-36.68v-73.363Z"/><path stroke="#8e92db" stroke-width="2.641032" fill="#8e92dbcc" d="m1531.508 2420.948 63.534 36.681v73.362l-63.534 36.681-63.533-36.68v-73.363Z"/><path stroke="#8e92db" stroke-width="2.641032" fill="none" d="m1659.158 2420.948 63.534 36.681v73.362l-63.534 36.681-63.533-36.68v-73.363ZM1786.808 2420.948l63.534 36.681v73.362l-63.534 36.681-63.533-36.68v-73.363ZM1914.458 2420.948l63.534 36.681v73.362l-63.534 36.681-63.533-36.68v-73.363Z"/><path stroke="#8e92db" stroke-width="2.641032" fill="#8e92db6c" d="m2042.108 2420.948 63.534 36.681v73.362l-63.534 36.681-63.533-36.68v-73.363Z"/><path stroke="#8e92db" stroke-width="2.641032" fill="#8e92db88" d="m2169.758 2420.948 63.534 36.681v73.362l-63.534 36.681-63.533-36.68v-73.363Z"/><path stroke="#8e92db" stroke-width="2.641032" fill="#8e92db7d" d="m2297.408 2420.948 63.534 36.681v73.362l-63.534 36.681-63.533-36.68v-73.363Z"/><path stroke="#8e92db" stroke-width="2.641032" fill="none" d="m63.533 2530.991 63.534 36.681v73.362l-63.534 36.682L0 2641.034v-73.362Z"/><path stroke="#8e92db" stroke-width="2.641032" fill="#8e92dbc6" d="m191.183 2530.991 63.534 36.681v73.362l-63.534 36.682-63.533-36.682v-73.362Z"/><path stroke="#8e92db" stroke-width="2.641032" fill="none" d="m318.833 2530.991 63.534 36.681v73.362l-63.534 36.682-63.533-36.682v-73.362Z"/><path stroke="#8e92db" stroke-width="2.641032" fill="#8e92db1a" d="m446.483 2530.991 63.534 36.681v73.362l-63.534 36.682-63.533-36.682v-73.362Z"/><path stroke="#8e92db" stroke-width="2.641032" fill="none" d="m574.133 2530.991 63.534 36.681v73.362l-63.534 36.682-63.533-36.682v-73.362Z"/><path stroke="#8e92db" stroke-width="2.641032" fill="#8e92dbc6" d="m701.783 2530.991 63.534 36.681v73.362l-63.534 36.682-63.533-36.682v-73.362Z"/><path stroke="#8e92db" stroke-width="2.641032" fill="#8e92db87" d="m829.433 2530.991 63.534 36.681v73.362l-63.534 36.682-63.533-36.682v-73.362Z"/><path stroke="#8e92db" stroke-width="2.641032" fill="#8e92db70" d="m957.083 2530.991 63.534 36.681v73.362l-63.534 36.682-63.533-36.682v-73.362Z"/><path stroke="#8e92db" stroke-width="2.641032" fill="none" d="m1084.733 2530.991 63.534 36.681v73.362l-63.534 36.682-63.533-36.682v-73.362ZM1212.383 2530.991l63.534 36.681v73.362l-63.534 36.682-63.533-36.682v-73.362ZM1340.033 2530.991l63.534 36.681v73.362l-63.534 36.682-63.533-36.682v-73.362ZM1467.683 2530.991l63.534 36.681v73.362l-63.534 36.682-63.533-36.682v-73.362ZM1595.333 2530.991l63.534 36.681v73.362l-63.534 36.682-63.533-36.682v-73.362ZM1722.983 2530.991l63.534 36.681v73.362l-63.534 36.682-63.533-36.682v-73.362ZM1850.633 2530.991l63.534 36.681v73.362l-63.534 36.682-63.533-36.682v-73.362ZM1978.283 2530.991l63.534 36.681v73.362l-63.534 36.682-63.533-36.682v-73.362ZM2105.933 2530.991l63.534 36.681v73.362l-63.534 36.682-63.533-36.682v-73.362ZM2233.583 2530.991l63.534 36.681v73.362l-63.534 36.682-63.533-36.682v-73.362ZM127.358 2641.034l63.534 36.682v73.362l-63.534 36.68-63.533-36.68v-73.362ZM255.008 2641.034l63.534 36.682v73.362l-63.534 36.68-63.533-36.68v-73.362Z"/><path stroke="#8e92db" stroke-width="2.641032" fill="#8e92db4e" d="m382.658 2641.034 63.534 36.682v73.362l-63.534 36.68-63.533-36.68v-73.362Z"/><path stroke="#8e92db" stroke-width="2.641032" fill="none" d="m510.308 2641.034 63.534 36.682v73.362l-63.534 36.68-63.533-36.68v-73.362ZM637.958 2641.034l63.534 36.682v73.362l-63.534 36.68-63.533-36.68v-73.362Z"/><path stroke="#8e92db" stroke-width="2.641032" fill="#8e92db41" d="m765.608 2641.034 63.534 36.682v73.362l-63.534 36.68-63.533-36.68v-73.362Z"/><path stroke="#8e92db" stroke-width="2.641032" fill="none" d="m893.258 2641.034 63.534 36.682v73.362l-63.534 36.68-63.533-36.68v-73.362Z"/><path stroke="#8e92db" stroke-width="2.641032" fill="#8e92db02" d="m1020.908 2641.034 63.534 36.682v73.362l-63.534 36.68-63.533-36.68v-73.362Z"/><path stroke="#8e92db" stroke-width="2.641032" fill="none" d="m1148.558 2641.034 63.534 36.682v73.362l-63.534 36.68-63.533-36.68v-73.362ZM1276.208 2641.034l63.534 36.682v73.362l-63.534 36.68-63.533-36.68v-73.362ZM1403.858 2641.034l63.534 36.682v73.362l-63.534 36.68-63.533-36.68v-73.362ZM1531.508 2641.034l63.534 36.682v73.362l-63.534 36.68-63.533-36.68v-73.362ZM1659.158 2641.034l63.534 36.682v73.362l-63.534 36.68-63.533-36.68v-73.362Z"/><path stroke="#8e92db" stroke-width="2.641032" fill="#8e92db47" d="m1786.808 2641.034 63.534 36.682v73.362l-63.534 36.68-63.533-36.68v-73.362Z"/><path stroke="#8e92db" stroke-width="2.641032" fill="#8e92db2b" d="m1914.458 2641.034 63.534 36.682v73.362l-63.534 36.68-63.533-36.68v-73.362Z"/><path stroke="#8e92db" stroke-width="2.641032" fill="none" d="m2042.108 2641.034 63.534 36.682v73.362l-63.534 36.68-63.533-36.68v-73.362ZM2169.758 2641.034l63.534 36.682v73.362l-63.534 36.68-63.533-36.68v-73.362ZM2297.408 2641.034l63.534 36.682v73.362l-63.534 36.68-63.533-36.68v-73.362ZM63.533 2751.078l63.534 36.68v73.363l-63.534 36.68L0 2861.122v-73.362Z"/><path stroke="#8e92db" stroke-width="2.641032" fill="#8e92db63" d="m191.183 2751.078 63.534 36.68v73.363l-63.534 36.68-63.533-36.68v-73.362Z"/><path stroke="#8e92db" stroke-width="2.641032" fill="#8e92dbdf" d="m318.833 2751.078 63.534 36.68v73.363l-63.534 36.68-63.533-36.68v-73.362Z"/><path stroke="#8e92db" stroke-width="2.641032" fill="#8e92db10" d="m446.483 2751.078 63.534 36.68v73.363l-63.534 36.68-63.533-36.68v-73.362Z"/><path stroke="#8e92db" stroke-width="2.641032" fill="none" d="m574.133 2751.078 63.534 36.68v73.363l-63.534 36.68-63.533-36.68v-73.362ZM701.783 2751.078l63.534 36.68v73.363l-63.534 36.68-63.533-36.68v-73.362ZM829.433 2751.078l63.534 36.68v73.363l-63.534 36.68-63.533-36.68v-73.362Z"/><path stroke="#8e92db" stroke-width="2.641032" fill="#8e92db8e" d="m957.083 2751.078 63.534 36.68v73.363l-63.534 36.68-63.533-36.68v-73.362Z"/><path stroke="#8e92db" stroke-width="2.641032" fill="none" d="m1084.733 2751.078 63.534 36.68v73.363l-63.534 36.68-63.533-36.68v-73.362ZM1212.383 2751.078l63.534 36.68v73.363l-63.534 36.68-63.533-36.68v-73.362ZM1340.033 2751.078l63.534 36.68v73.363l-63.534 36.68-63.533-36.68v-73.362ZM1467.683 2751.078l63.534 36.68v73.363l-63.534 36.68-63.533-36.68v-73.362ZM1595.333 2751.078l63.534 36.68v73.363l-63.534 36.68-63.533-36.68v-73.362Z"/><path stroke="#8e92db" stroke-width="2.641032" fill="#8e92db82" d="m1722.983 2751.078 63.534 36.68v73.363l-63.534 36.68-63.533-36.68v-73.362Z"/><path stroke="#8e92db" stroke-width="2.641032" fill="#8e92dbe9" d="m1850.633 2751.078 63.534 36.68v73.363l-63.534 36.68-63.533-36.68v-73.362Z"/><path stroke="#8e92db" stroke-width="2.641032" fill="#8e92db95" d="m1978.283 2751.078 63.534 36.68v73.363l-63.534 36.68-63.533-36.68v-73.362Z"/><path stroke="#8e92db" stroke-width="2.641032" fill="none" d="m2105.933 2751.078 63.534 36.68v73.363l-63.534 36.68-63.533-36.68v-73.362ZM2233.583 2751.078l63.534 36.68v73.363l-63.534 36.68-63.533-36.68v-73.362Z"/><path stroke="#8e92db" stroke-width="2.641032" fill="#8e92db05" d="m127.358 2861.12 63.534 36.682v73.362l-63.534 36.68-63.533-36.68v-73.362Z"/><path stroke="#8e92db" stroke-width="2.641032" fill="none" d="m255.008 2861.12 63.534 36.682v73.362l-63.534 36.68-63.533-36.68v-73.362ZM382.658 2861.12l63.534 36.682v73.362l-63.534 36.68-63.533-36.68v-73.362Z"/><path stroke="#8e92db" stroke-width="2.641032" fill="#8e92db6e" d="m510.308 2861.12 63.534 36.682v73.362l-63.534 36.68-63.533-36.68v-73.362Z"/><path stroke="#8e92db" stroke-width="2.641032" fill="none" d="m637.958 2861.12 63.534 36.682v73.362l-63.534 36.68-63.533-36.68v-73.362Z"/><path stroke="#8e92db" stroke-width="2.641032" fill="#8e92db75" d="m765.608 2861.12 63.534 36.682v73.362l-63.534 36.68-63.533-36.68v-73.362Z"/><path stroke="#8e92db" stroke-width="2.641032" fill="#8e92db72" d="m893.258 2861.12 63.534 36.682v73.362l-63.534 36.68-63.533-36.68v-73.362Z"/><path stroke="#8e92db" stroke-width="2.641032" fill="none" d="m1020.908 2861.12 63.534 36.682v73.362l-63.534 36.68-63.533-36.68v-73.362ZM1148.558 2861.12l63.534 36.682v73.362l-63.534 36.68-63.533-36.68v-73.362Z"/><path stroke="#8e92db" stroke-width="2.641032" fill="#8e92db6a" d="m1276.208 2861.12 63.534 36.682v73.362l-63.534 36.68-63.533-36.68v-73.362Z"/><path stroke="#8e92db" stroke-width="2.641032" fill="none" d="m1403.858 2861.12 63.534 36.682v73.362l-63.534 36.68-63.533-36.68v-73.362Z"/><path stroke="#8e92db" stroke-width="2.641032" fill="#8e92dbe2" d="m1531.508 2861.12 63.534 36.682v73.362l-63.534 36.68-63.533-36.68v-73.362Z"/><path stroke="#8e92db" stroke-width="2.641032" fill="none" d="m1659.158 2861.12 63.534 36.682v73.362l-63.534 36.68-63.533-36.68v-73.362ZM1786.808 2861.12l63.534 36.682v73.362l-63.534 36.68-63.533-36.68v-73.362ZM1914.458 2861.12l63.534 36.682v73.362l-63.534 36.68-63.533-36.68v-73.362ZM2042.108 2861.12l63.534 36.682v73.362l-63.534 36.68-63.533-36.68v-73.362ZM2169.758 2861.12l63.534 36.682v73.362l-63.534 36.68-63.533-36.68v-73.362ZM2297.408 2861.12l63.534 36.682v73.362l-63.534 36.68-63.533-36.68v-73.362ZM63.533 2971.164l63.534 36.68v73.363l-63.534 36.68L0 3081.208v-73.362ZM191.183 2971.164l63.534 36.68v73.363l-63.534 36.68-63.533-36.68v-73.362ZM318.833 2971.164l63.534 36.68v73.363l-63.534 36.68-63.533-36.68v-73.362Z"/><path stroke="#8e92db" stroke-width="2.641032" fill="#8e92db37" d="m446.483 2971.164 63.534 36.68v73.363l-63.534 36.68-63.533-36.68v-73.362Z"/><path stroke="#8e92db" stroke-width="2.641032" fill="#8e92dbeb" d="m574.133 2971.164 63.534 36.68v73.363l-63.534 36.68-63.533-36.68v-73.362Z"/><path stroke="#8e92db" stroke-width="2.641032" fill="none" d="m701.783 2971.164 63.534 36.68v73.363l-63.534 36.68-63.533-36.68v-73.362Z"/><path stroke="#8e92db" stroke-width="2.641032" fill="#8e92db76" d="m829.433 2971.164 63.534 36.68v73.363l-63.534 36.68-63.533-36.68v-73.362Z"/><path stroke="#8e92db" stroke-width="2.641032" fill="#8e92dbfe" d="m957.083 2971.164 63.534 36.68v73.363l-63.534 36.68-63.533-36.68v-73.362Z"/><path stroke="#8e92db" stroke-width="2.641032" fill="none" d="m1084.733 2971.164 63.534 36.68v73.363l-63.534 36.68-63.533-36.68v-73.362ZM1212.383 2971.164l63.534 36.68v73.363l-63.534 36.68-63.533-36.68v-73.362ZM1340.033 2971.164l63.534 36.68v73.363l-63.534 36.68-63.533-36.68v-73.362Z"/><path stroke="#8e92db" stroke-width="2.641032" fill="#8e92db80" d="m1467.683 2971.164 63.534 36.68v73.363l-63.534 36.68-63.533-36.68v-73.362Z"/><path stroke="#8e92db" stroke-width="2.641032" fill="none" d="m1595.333 2971.164 63.534 36.68v73.363l-63.534 36.68-63.533-36.68v-73.362ZM1722.983 2971.164l63.534 36.68v73.363l-63.534 36.68-63.533-36.68v-73.362ZM1850.633 2971.164l63.534 36.68v73.363l-63.534 36.68-63.533-36.68v-73.362Z"/><path stroke="#8e92db" stroke-width="2.641032" fill="#8e92dbc7" d="m1978.283 2971.164 63.534 36.68v73.363l-63.534 36.68-63.533-36.68v-73.362Z"/><path stroke="#8e92db" stroke-width="2.641032" fill="none" d="m2105.933 2971.164 63.534 36.68v73.363l-63.534 36.68-63.533-36.68v-73.362ZM2233.583 2971.164l63.534 36.68v73.363l-63.534 36.68-63.533-36.68v-73.362ZM127.358 3081.207l63.534 36.68v73.363l-63.534 36.681-63.533-36.681v-73.362ZM255.008 3081.207l63.534 36.68v73.363l-63.534 36.681-63.533-36.681v-73.362ZM382.658 3081.207l63.534 36.68v73.363l-63.534 36.681-63.533-36.681v-73.362Z"/><path stroke="#8e92db" stroke-width="2.641032" fill="#8e92db9c" d="m510.308 3081.207 63.534 36.68v73.363l-63.534 36.681-63.533-36.681v-73.362Z"/><path stroke="#8e92db" stroke-width="2.641032" fill="none" d="m637.958 3081.207 63.534 36.68v73.363l-63.534 36.681-63.533-36.681v-73.362Z"/><path stroke="#8e92db" stroke-width="2.641032" fill="#8e92dbc9" d="m765.608 3081.207 63.534 36.68v73.363l-63.534 36.681-63.533-36.681v-73.362Z"/><path stroke="#8e92db" stroke-width="2.641032" fill="none" d="m893.258 3081.207 63.534 36.68v73.363l-63.534 36.681-63.533-36.681v-73.362Z"/><path stroke="#8e92db" stroke-width="2.641032" fill="#8e92db94" d="m1020.908 3081.207 63.534 36.68v73.363l-63.534 36.681-63.533-36.681v-73.362Z"/><path stroke="#8e92db" stroke-width="2.641032" fill="none" d="m1148.558 3081.207 63.534 36.68v73.363l-63.534 36.681-63.533-36.681v-73.362ZM1276.208 3081.207l63.534 36.68v73.363l-63.534 36.681-63.533-36.681v-73.362ZM1403.858 3081.207l63.534 36.68v73.363l-63.534 36.681-63.533-36.681v-73.362ZM1531.508 3081.207l63.534 36.68v73.363l-63.534 36.681-63.533-36.681v-73.362ZM1659.158 3081.207l63.534 36.68v73.363l-63.534 36.681-63.533-36.681v-73.362ZM1786.808 3081.207l63.534 36.68v73.363l-63.534 36.681-63.533-36.681v-73.362ZM1914.458 3081.207l63.534 36.68v73.363l-63.534 36.681-63.533-36.681v-73.362ZM2042.108 3081.207l63.534 36.68v73.363l-63.534 36.681-63.533-36.681v-73.362ZM2169.758 3081.207l63.534 36.68v73.363l-63.534 36.681-63.533-36.681v-73.362Z"/><path stroke="#8e92db" stroke-width="2.641032" fill="#8e92dbb6" d="m2297.408 3081.207 63.534 36.68v73.363l-63.534 36.681-63.533-36.681v-73.362Z"/><path stroke="#8e92db" stroke-width="2.641032" fill="#8e92db43" d="m63.533 3191.25 63.534 36.681v73.362l-63.534 36.681L0 3301.294v-73.363Z"/><path stroke="#8e92db" stroke-width="2.641032" fill="none" d="m191.183 3191.25 63.534 36.681v73.362l-63.534 36.681-63.533-36.68v-73.363ZM318.833 3191.25l63.534 36.681v73.362l-63.534 36.681-63.533-36.68v-73.363ZM446.483 3191.25l63.534 36.681v73.362l-63.534 36.681-63.533-36.68v-73.363Z"/><path stroke="#8e92db" stroke-width="2.641032" fill="#8e92db7c" d="m574.133 3191.25 63.534 36.681v73.362l-63.534 36.681-63.533-36.68v-73.363Z"/><path stroke="#8e92db" stroke-width="2.641032" fill="none" d="m701.783 3191.25 63.534 36.681v73.362l-63.534 36.681-63.533-36.68v-73.363ZM829.433 3191.25l63.534 36.681v73.362l-63.534 36.681-63.533-36.68v-73.363Z"/><path stroke="#8e92db" stroke-width="2.641032" fill="#8e92db74" d="m957.083 3191.25 63.534 36.681v73.362l-63.534 36.681-63.533-36.68v-73.363Z"/><path stroke="#8e92db" stroke-width="2.641032" fill="none" d="m1084.733 3191.25 63.534 36.681v73.362l-63.534 36.681-63.533-36.68v-73.363Z"/><path stroke="#8e92db" stroke-width="2.641032" fill="#8e92db34" d="m1212.383 3191.25 63.534 36.681v73.362l-63.534 36.681-63.533-36.68v-73.363Z"/><path stroke="#8e92db" stroke-width="2.641032" fill="none" d="m1340.033 3191.25 63.534 36.681v73.362l-63.534 36.681-63.533-36.68v-73.363Z"/><path stroke="#8e92db" stroke-width="2.641032" fill="#8e92dbd7" d="m1467.683 3191.25 63.534 36.681v73.362l-63.534 36.681-63.533-36.68v-73.363Z"/><path stroke="#8e92db" stroke-width="2.641032" fill="none" d="m1595.333 3191.25 63.534 36.681v73.362l-63.534 36.681-63.533-36.68v-73.363ZM1722.983 3191.25l63.534 36.681v73.362l-63.534 36.681-63.533-36.68v-73.363ZM1850.633 3191.25l63.534 36.681v73.362l-63.534 36.681-63.533-36.68v-73.363ZM1978.283 3191.25l63.534 36.681v73.362l-63.534 36.681-63.533-36.68v-73.363Z"/><path stroke="#8e92db" stroke-width="2.641032" fill="#8e92db12" d="m2105.933 3191.25 63.534 36.681v73.362l-63.534 36.681-63.533-36.68v-73.363Z"/><path stroke="#8e92db" stroke-width="2.641032" fill="none" d="m2233.583 3191.25 63.534 36.681v73.362l-63.534 36.681-63.533-36.68v-73.363ZM127.358 3301.293l63.534 36.681v73.362l-63.534 36.681-63.533-36.68v-73.363Z"/><path stroke="#8e92db" stroke-width="2.641032" fill="#8e92db45" d="m255.008 3301.293 63.534 36.681v73.362l-63.534 36.681-63.533-36.68v-73.363Z"/><path stroke="#8e92db" stroke-width="2.641032" fill="none" d="m382.658 3301.293 63.534 36.681v73.362l-63.534 36.681-63.533-36.68v-73.363ZM510.308 3301.293l63.534 36.681v73.362l-63.534 36.681-63.533-36.68v-73.363Z"/><path stroke="#8e92db" stroke-width="2.641032" fill="#8e92db2a" d="m637.958 3301.293 63.534 36.681v73.362l-63.534 36.681-63.533-36.68v-73.363Z"/><path stroke="#8e92db" stroke-width="2.641032" fill="none" d="m765.608 3301.293 63.534 36.681v73.362l-63.534 36.681-63.533-36.68v-73.363Z"/><path stroke="#8e92db" stroke-width="2.641032" fill="#8e92db56" d="m893.258 3301.293 63.534 36.681v73.362l-63.534 36.681-63.533-36.68v-73.363Z"/><path stroke="#8e92db" stroke-width="2.641032" fill="none" d="m1020.908 3301.293 63.534 36.681v73.362l-63.534 36.681-63.533-36.68v-73.363ZM1148.558 3301.293l63.534 36.681v73.362l-63.534 36.681-63.533-36.68v-73.363ZM1276.208 3301.293l63.534 36.681v73.362l-63.534 36.681-63.533-36.68v-73.363ZM1403.858 3301.293l63.534 36.681v73.362l-63.534 36.681-63.533-36.68v-73.363ZM1531.508 3301.293l63.534 36.681v73.362l-63.534 36.681-63.533-36.68v-73.363Z"/><path stroke="#8e92db" stroke-width="2.641032" fill="#8e92db7e" d="m1659.158 3301.293 63.534 36.681v73.362l-63.534 36.681-63.533-36.68v-73.363Z"/><path stroke="#8e92db" stroke-width="2.641032" fill="none" d="m1786.808 3301.293 63.534 36.681v73.362l-63.534 36.681-63.533-36.68v-73.363ZM1914.458 3301.293l63.534 36.681v73.362l-63.534 36.681-63.533-36.68v-73.363ZM2042.108 3301.293l63.534 36.681v73.362l-63.534 36.681-63.533-36.68v-73.363Z"/><path stroke="#8e92db" stroke-width="2.641032" fill="#8e92db28" d="m2169.758 3301.293 63.534 36.681v73.362l-63.534 36.681-63.533-36.68v-73.363Z"/><path stroke="#8e92db" stroke-width="2.641032" fill="none" d="m2297.408 3301.293 63.534 36.681v73.362l-63.534 36.681-63.533-36.68v-73.363Z"/><path stroke="#8e92db" stroke-width="2.641032" fill="#8e92dbc3" d="m63.533 3411.336 63.534 36.681v73.362l-63.534 36.681L0 3521.38v-73.363Z"/><path stroke="#8e92db" stroke-width="2.641032" fill="#8e92db78" d="m191.183 3411.336 63.534 36.681v73.362l-63.534 36.681-63.533-36.68v-73.363Z"/><path stroke="#8e92db" stroke-width="2.641032" fill="#8e92db0f" d="m318.833 3411.336 63.534 36.681v73.362l-63.534 36.681-63.533-36.68v-73.363Z"/><path stroke="#8e92db" stroke-width="2.641032" fill="none" d="m446.483 3411.336 63.534 36.681v73.362l-63.534 36.681-63.533-36.68v-73.363Z"/><path stroke="#8e92db" stroke-width="2.641032" fill="#8e92db80" d="m574.133 3411.336 63.534 36.681v73.362l-63.534 36.681-63.533-36.68v-73.363Z"/><path stroke="#8e92db" stroke-width="2.641032" fill="none" d="m701.783 3411.336 63.534 36.681v73.362l-63.534 36.681-63.533-36.68v-73.363Z"/><path stroke="#8e92db" stroke-width="2.641032" fill="#8e92db86" d="m829.433 3411.336 63.534 36.681v73.362l-63.534 36.681-63.533-36.68v-73.363Z"/><path stroke="#8e92db" stroke-width="2.641032" fill="none" d="m957.083 3411.336 63.534 36.681v73.362l-63.534 36.681-63.533-36.68v-73.363ZM1084.733 3411.336l63.534 36.681v73.362l-63.534 36.681-63.533-36.68v-73.363ZM1212.383 3411.336l63.534 36.681v73.362l-63.534 36.681-63.533-36.68v-73.363ZM1340.033 3411.336l63.534 36.681v73.362l-63.534 36.681-63.533-36.68v-73.363Z"/><path stroke="#8e92db" stroke-width="2.641032" fill="#8e92dbea" d="m1467.683 3411.336 63.534 36.681v73.362l-63.534 36.681-63.533-36.68v-73.363Z"/><path stroke="#8e92db" stroke-width="2.641032" fill="none" d="m1595.333 3411.336 63.534 36.681v73.362l-63.534 36.681-63.533-36.68v-73.363Z"/><path stroke="#8e92db" stroke-width="2.641032" fill="#8e92dbfe" d="m1722.983 3411.336 63.534 36.681v73.362l-63.534 36.681-63.533-36.68v-73.363Z"/><path stroke="#8e92db" stroke-width="2.641032" fill="none" d="m1850.633 3411.336 63.534 36.681v73.362l-63.534 36.681-63.533-36.68v-73.363Z"/><path stroke="#8e92db" stroke-width="2.641032" fill="#8e92dbef" d="m1978.283 3411.336 63.534 36.681v73.362l-63.534 36.681-63.533-36.68v-73.363Z"/><path stroke="#8e92db" stroke-width="2.641032" fill="none" d="m2105.933 3411.336 63.534 36.681v73.362l-63.534 36.681-63.533-36.68v-73.363ZM2233.583 3411.336l63.534 36.681v73.362l-63.534 36.681-63.533-36.68v-73.363Z"/></g><defs><radialGradient id="a"><stop offset="0" stop-color="#fff"/><stop offset="1" stop-color="#fff" stop-opacity="0"/></radialGradient></defs></svg>